<svg width="243" height="136" viewBox="0 0 243 136" fill="none" xmlns="http://www.w3.org/2000/svg">
<g clip-path="url(#clip0)">
<path d="M20.5114 112.035C22.5801 115.313 25.1003 118.284 27.9978 120.859C28.064 120.92 28.132 120.978 28.2 121.037L34.3862 117.361C34.3405 117.299 34.29 117.229 34.2358 117.153C31.0058 112.656 16.4181 82.7393 16.3289 76.1143C16.3177 76.6626 11.0791 97.2529 20.5114 112.035Z" fill="url(#paint0_linear)"/>
<path d="M26.8041 121.568C26.8996 121.611 26.9972 121.653 27.0954 121.693L31.7365 118.935C31.6641 118.893 31.5795 118.844 31.4826 118.788C29.8938 117.86 25.1664 115.072 20.5118 112.034C15.5106 108.77 10.5906 105.221 9.73682 103.386C9.91448 103.808 15.4211 116.643 26.8041 121.568Z" fill="url(#paint1_linear)"/>
<path d="M222.864 124.095C222.76 127.971 222.111 131.812 220.936 135.506C220.91 135.591 220.881 135.676 220.853 135.762H213.657C213.664 135.685 213.672 135.599 213.68 135.506C214.159 129.99 211.418 96.8191 208.111 91.0781C208.401 91.5438 223.422 106.569 222.864 124.095Z" fill="url(#paint2_linear)"/>
<path d="M222.324 135.506C222.263 135.592 222.201 135.677 222.137 135.762H216.738C216.779 135.689 216.827 135.603 216.882 135.506C217.773 133.896 220.413 129.084 222.863 124.095C225.495 118.734 227.912 113.17 227.708 111.156C227.771 111.61 229.594 125.457 222.324 135.506Z" fill="url(#paint3_linear)"/>
<path d="M116.766 135.561H33.5493C31.577 135.559 29.686 134.775 28.2913 133.38C26.8966 131.985 26.1121 130.094 26.1099 128.122V7.43948C26.1121 5.46709 26.8966 3.57613 28.2913 2.18143C29.686 0.786742 31.5769 0.00222649 33.5493 0H116.766C118.738 0.00222648 120.629 0.78674 122.024 2.18143C123.418 3.57612 124.203 5.46709 124.205 7.43947V128.122C124.203 130.094 123.418 131.985 122.024 133.38C120.629 134.775 118.738 135.559 116.766 135.561Z" fill="#CACACA"/>
<path d="M116.912 130.815H33.4022C32.7942 130.815 32.2113 130.573 31.7813 130.143C31.3514 129.713 31.1096 129.13 31.1089 128.522V7.04037C31.1096 6.43236 31.3514 5.84946 31.7813 5.41953C32.2113 4.9896 32.7942 4.74776 33.4022 4.74707H116.912C117.52 4.74776 118.102 4.9896 118.532 5.41953C118.962 5.84946 119.204 6.43236 119.205 7.04037V128.522C119.204 129.13 118.962 129.713 118.532 130.143C118.102 130.573 117.52 130.815 116.912 130.815Z" fill="white"/>
<path d="M74.8414 2.91126C75.1909 2.91126 75.4742 2.62791 75.4742 2.27838C75.4742 1.92885 75.1909 1.64551 74.8414 1.64551C74.4918 1.64551 74.2085 1.92885 74.2085 2.27838C74.2085 2.62791 74.4918 2.91126 74.8414 2.91126Z" fill="white"/>
<path d="M242.222 136H0.310288C0.227994 136 0.149071 135.968 0.090881 135.91C0.0326905 135.851 0 135.772 0 135.69C0 135.608 0.0326905 135.529 0.090881 135.471C0.149071 135.413 0.227994 135.38 0.310288 135.38H242.222C242.304 135.38 242.383 135.413 242.442 135.471C242.5 135.529 242.532 135.608 242.532 135.69C242.532 135.772 242.5 135.851 242.442 135.91C242.383 135.968 242.304 136 242.222 136Z" fill="#CACACA"/>
<path d="M75.1567 100.682C79.6183 100.682 83.2352 97.0646 83.2352 92.603C83.2352 88.1413 79.6183 84.5244 75.1567 84.5244C70.695 84.5244 67.0781 88.1413 67.0781 92.603C67.0781 97.0646 70.695 100.682 75.1567 100.682Z" fill="url(#paint4_linear)"/>
<path d="M80.2146 77.0976H70.0992L63.9924 47.2251C63.8355 45.6652 64.0072 44.0898 64.4964 42.6004C64.9856 41.1109 65.7816 39.7405 66.8328 38.5775C67.8841 37.4144 69.1674 36.4846 70.6001 35.8479C72.0327 35.2112 73.5829 34.8818 75.1506 34.8809C76.7183 34.8799 78.2689 35.2075 79.7023 35.8425C81.1357 36.4775 82.4201 37.4058 83.4727 38.5676C84.5254 39.7294 85.3229 41.0988 85.8139 42.5877C86.3049 44.0766 86.4785 45.6518 86.3234 47.2119L80.2146 77.0976Z" fill="url(#paint5_linear)"/>
<path d="M114.903 36.9445H151.875C153.659 36.9445 155.39 37.5515 156.783 38.6657C158.176 39.7799 159.149 41.3351 159.542 43.0755L178.223 125.937C178.427 126.841 178.43 127.779 178.233 128.684C178.037 129.589 177.644 130.441 177.084 131.178C176.523 131.916 175.808 132.522 174.988 132.954C174.168 133.386 173.264 133.633 172.339 133.679L134.331 135.552C132.296 135.652 130.294 135.008 128.698 133.741C127.103 132.473 126.023 130.669 125.66 128.664L115.063 70.0793L113.059 58.9977L110.101 42.6448C109.974 41.9443 110.003 41.2246 110.187 40.5368C110.37 39.849 110.703 39.2102 111.162 38.6658C111.62 38.1214 112.193 37.6849 112.84 37.3874C113.486 37.0898 114.191 36.9386 114.903 36.9445Z" fill="#3F3D56"/>
<path d="M147.008 38.7305H151.324C152.563 38.7305 153.765 39.1544 154.731 39.9318C155.696 40.7091 156.366 41.7933 156.63 43.0042L174.562 125.19C174.665 125.663 174.665 126.153 174.562 126.626C174.458 127.099 174.254 127.545 173.963 127.932C173.671 128.318 173.3 128.638 172.874 128.868C172.448 129.099 171.977 129.234 171.494 129.266L133.609 131.749C132.54 131.819 131.483 131.493 130.639 130.833C129.796 130.173 129.224 129.226 129.034 128.172L113.733 43.2249C113.634 42.6751 113.657 42.1103 113.8 41.5703C113.943 41.0302 114.203 40.5282 114.562 40.0996C114.92 39.671 115.368 39.3262 115.874 39.0897C116.38 38.8531 116.932 38.7305 117.491 38.7305H121.585C121.981 38.7305 122.366 38.8611 122.681 39.1021C122.995 39.3432 123.222 39.6812 123.325 40.0638C123.415 40.4016 123.615 40.7 123.893 40.9128C124.171 41.1256 124.511 41.2409 124.86 41.2409H144.297C144.982 41.2409 145.642 40.9824 146.144 40.5169C146.647 40.0515 146.955 39.4135 147.008 38.7305V38.7305Z" fill="url(#paint6_linear)"/>
<path d="M166.128 65.0753C166.249 65.1536 166.364 65.2414 166.471 65.3377L178.994 62.1452L179.849 59.124L184.577 59.8174L183.584 65.3129C183.504 65.7568 183.282 66.1628 182.951 66.4698C182.621 66.7769 182.199 66.9684 181.751 67.0156L167.128 68.5555C166.89 69.0573 166.505 69.4746 166.023 69.752C165.542 70.0294 164.988 70.1537 164.434 70.1083C163.88 70.063 163.354 69.8501 162.924 69.4981C162.494 69.1461 162.182 68.6716 162.028 68.1377C161.875 67.6038 161.888 67.0358 162.065 66.5094C162.242 65.9829 162.575 65.5228 163.02 65.1904C163.465 64.8579 164.001 64.6688 164.556 64.6483C165.111 64.6277 165.66 64.7766 166.128 65.0753H166.128Z" fill="#FFB6B6"/>
<path d="M157.19 76.4061C161.652 76.4061 165.269 72.7892 165.269 68.3276C165.269 63.8659 161.652 60.249 157.19 60.249C152.729 60.249 149.112 63.8659 149.112 68.3276C149.112 72.7892 152.729 76.4061 157.19 76.4061Z" fill="url(#paint7_linear)"/>
<path d="M162.249 52.8222H152.133L146.027 22.9497C145.87 21.3898 146.041 19.8144 146.531 18.325C147.02 16.8355 147.816 15.4651 148.867 14.3021C149.918 13.139 151.202 12.2092 152.634 11.5725C154.067 10.9358 155.617 10.6064 157.185 10.6055C158.753 10.6045 160.303 10.9321 161.736 11.5671C163.17 12.2021 164.454 13.1304 165.507 14.2922C166.56 15.454 167.357 16.8235 167.848 18.3123C168.339 19.8012 168.513 21.3764 168.358 22.9365L162.249 52.8222Z" fill="url(#paint8_linear)"/>
<path d="M185.422 62.5598L182.196 65.343L177.682 69.2337L175.689 59.0339L175.48 57.9733L175.316 57.1315L179.889 49.165L183.702 49.3839L183.963 49.3996L183.968 49.4569L184.028 49.9911L184.81 57.0221L184.828 57.1915L185.422 62.5598Z" fill="#3F3D56"/>
<path d="M164.335 132.316L161.14 132.315L159.62 119.992L164.336 119.992L164.335 132.316Z" fill="#FFB6B6"/>
<path d="M165.15 135.412L154.848 135.411V135.281C154.848 134.218 155.271 133.198 156.023 132.446C156.775 131.694 157.794 131.272 158.858 131.271H158.858L165.15 131.272L165.15 135.412Z" fill="#2F2E41"/>
<path d="M197.692 132.576L194.497 132.576L192.977 120.253L197.692 120.253L197.692 132.576Z" fill="#FFB6B6"/>
<path d="M198.506 135.673L188.205 135.672V135.542C188.205 134.478 188.627 133.459 189.379 132.707C190.131 131.955 191.151 131.532 192.214 131.532H192.215L198.506 131.532L198.506 135.673Z" fill="#2F2E41"/>
<path d="M200.245 127.149L191.645 128.452L179.134 86.1103L165.846 128.713L156.204 127.41L168.712 77.8963V73.9873L170.406 68.1238L170.229 66.5368L168.996 55.4379L168.462 50.6246L168.428 50.3137C168.398 50.0528 168.468 49.7904 168.621 49.5776C168.775 49.3648 169.003 49.2169 169.26 49.1627L173.273 48.3184H179.832L183.702 49.3842L183.968 49.4572L184.088 49.4911L184.028 49.9914L183.121 57.5957L183.071 58.0126L182.196 65.3432L182.003 66.9511C189.56 72.4237 189.821 77.8963 189.821 77.8963L200.245 127.149Z" fill="#2F2E41"/>
<path d="M175.759 45.0209C179.294 45.0209 182.16 42.1552 182.16 38.6203C182.16 35.0854 179.294 32.2197 175.759 32.2197C172.225 32.2197 169.359 35.0854 169.359 38.6203C169.359 42.1552 172.225 45.0209 175.759 45.0209Z" fill="#FFB6B6"/>
<path d="M182.483 65.4799L169.821 67.1357L170.058 68.9445L182.719 67.2887L182.483 65.4799Z" fill="#3F3D56"/>
<path d="M152.837 67.6807C152.958 67.7591 153.073 67.8468 153.18 67.9432L165.704 64.7507L166.558 61.7295L171.286 62.4229L170.294 67.9184C170.213 68.3623 169.991 68.7683 169.661 69.0753C169.33 69.3823 168.909 69.5738 168.46 69.6211L153.838 71.161C153.6 71.6628 153.214 72.0801 152.733 72.3575C152.251 72.6349 151.697 72.7591 151.144 72.7138C150.59 72.6684 150.063 72.4556 149.633 72.1036C149.204 71.7515 148.891 71.277 148.738 70.7432C148.584 70.2093 148.597 69.6413 148.774 69.1148C148.951 68.5883 149.285 68.1283 149.73 67.7958C150.175 67.4634 150.711 67.2743 151.266 67.2537C151.821 67.2332 152.369 67.3821 152.837 67.6807H152.837Z" fill="#FFB6B6"/>
<path d="M172.1 50.7932L169.885 49.0993C169.286 48.8721 168.466 49.5175 168.322 50.1417L165.194 62.911L171.709 67.6018L172.621 66.1685L172.1 50.7932Z" fill="#3F3D56"/>
<g opacity="0.2">
<path opacity="0.2" d="M184.81 57.0223C184.257 57.2418 183.694 57.4331 183.121 57.5957C182.939 57.6504 182.751 57.7025 182.566 57.752C181.347 58.0904 180.093 58.2931 178.829 58.3566C178.285 58.3796 177.74 58.3648 177.198 58.3123C176.616 58.2543 176.041 58.1409 175.481 57.9735C175.462 57.9683 175.441 57.9631 175.423 57.9579C174.258 57.627 173.19 57.02 172.309 56.1884C172.112 55.9968 171.929 55.7922 171.759 55.576C171.273 54.98 170.916 54.2891 170.711 53.5474C170.506 52.8057 170.459 52.0295 170.571 51.2683C170.593 51.1304 170.622 50.9938 170.66 50.8592C170.758 50.4924 170.888 50.1349 171.048 49.7907C171.118 49.6292 171.196 49.4702 171.28 49.3138L174.224 48.3184H179.833L183.702 49.3842L183.963 49.3998L183.968 49.4572L184.088 49.4911L184.028 49.9914L184.81 57.0223Z" fill="black"/>
</g>
<path d="M170.855 33.3214C169.658 33.1747 168.345 33.2784 167.412 34.0426C166.479 34.8067 166.178 36.3952 167.061 37.2162C167.843 37.943 169.066 37.7721 170.113 37.9788C171.016 38.181 171.824 38.6802 172.409 39.3962C172.994 40.1123 173.322 41.004 173.34 41.9286C173.325 44.5799 170.78 46.5878 170.323 49.1995C170.011 50.9819 170.763 52.8578 172.063 54.1169C173.362 55.376 175.149 56.0564 176.949 56.2407C178.749 56.425 180.57 56.1435 182.319 55.6811C184.076 55.2166 185.805 54.5577 187.279 53.4952C188.753 52.4326 189.962 50.9346 190.435 49.1802C190.908 47.4258 190.568 45.4144 189.349 44.0673C187.952 42.5248 185.629 41.9944 184.421 40.3002C183.067 38.401 183.568 35.6964 182.472 33.6374C181.74 32.2627 180.355 31.3251 178.878 30.8311C177.401 30.3372 175.824 30.2397 174.267 30.1919C173.449 30.1667 172.606 30.1583 171.844 30.4566C171.081 30.7549 170.411 31.4347 170.372 32.2523C170.332 33.0699 170.855 33.3214 170.855 33.3214Z" fill="#2F2E41"/>
</g>
<defs>
<linearGradient id="paint0_linear" x1="6.92311" y1="43.7962" x2="6.92311" y2="125.291" gradientUnits="userSpaceOnUse">
<stop stop-color="#1CD1A1"/>
<stop offset="1" stop-color="white"/>
</linearGradient>
<linearGradient id="paint1_linear" x1="0.781572" y1="90.2154" x2="0.781572" y2="123.427" gradientUnits="userSpaceOnUse">
<stop stop-color="#1CD1A1"/>
<stop offset="1" stop-color="white"/>
</linearGradient>
<linearGradient id="paint2_linear" x1="202.099" y1="58.9321" x2="202.099" y2="139.993" gradientUnits="userSpaceOnUse">
<stop stop-color="#1CD1A1"/>
<stop offset="1" stop-color="white"/>
</linearGradient>
<linearGradient id="paint3_linear" x1="212.172" y1="93.4547" x2="212.172" y2="138.092" gradientUnits="userSpaceOnUse">
<stop stop-color="#1CD1A1"/>
<stop offset="1" stop-color="white"/>
</linearGradient>
<linearGradient id="paint4_linear" x1="67.0781" y1="84.5244" x2="82.2889" y2="101.528" gradientUnits="userSpaceOnUse">
<stop offset="0.0208333" stop-color="#FFCA1B"/>
<stop offset="0.505208" stop-color="#F77455"/>
<stop offset="0.947917" stop-color="#FE8F1A"/>
</linearGradient>
<linearGradient id="paint5_linear" x1="63.936" y1="34.8809" x2="99.0617" y2="55.7545" gradientUnits="userSpaceOnUse">
<stop offset="0.0208333" stop-color="#FFCA1B"/>
<stop offset="0.505208" stop-color="#F77455"/>
<stop offset="0.947917" stop-color="#FE8F1A"/>
</linearGradient>
<linearGradient id="paint6_linear" x1="113.673" y1="38.7305" x2="197.696" y2="100.286" gradientUnits="userSpaceOnUse">
<stop offset="0.0208333" stop-color="#41E7B0"/>
<stop offset="0.505208" stop-color="#2297F3"/>
<stop offset="0.947917" stop-color="#8358FC"/>
</linearGradient>
<linearGradient id="paint7_linear" x1="149.112" y1="60.249" x2="164.323" y2="77.2526" gradientUnits="userSpaceOnUse">
<stop offset="0.0208333" stop-color="#FFCA1B"/>
<stop offset="0.505208" stop-color="#F77455"/>
<stop offset="0.947917" stop-color="#FE8F1A"/>
</linearGradient>
<linearGradient id="paint8_linear" x1="145.97" y1="10.6055" x2="181.096" y2="31.4791" gradientUnits="userSpaceOnUse">
<stop offset="0.0208333" stop-color="#FFCA1B"/>
<stop offset="0.505208" stop-color="#F77455"/>
<stop offset="0.947917" stop-color="#FE8F1A"/>
</linearGradient>
<clipPath id="clip0">
<rect width="242.532" height="136" fill="white"/>
</clipPath>
</defs>
</svg>
