<svg width="16" height="12" viewBox="0 0 16 12" fill="none" xmlns="http://www.w3.org/2000/svg">
<path d="M3.06594 1.98808H0.597808C0.314203 1.98808 0.0305977 2.23336 0.0689227 2.63194L1.26466 10.2893C1.26466 10.2893 2.68269 4.64783 2.95863 3.29113C3.04294 2.88488 3.42619 2.75458 3.7098 2.75458H7.66494C7.66494 2.75458 7.12839 1.16026 7.07473 0.983963C6.98275 0.646703 6.81412 0.455078 6.47686 0.455078H3.93975C3.66381 0.455078 3.4032 0.631373 3.32655 0.945638C3.25756 1.25224 3.06594 1.98808 3.06594 1.98808ZM6.80646 1.98808H3.74046C3.74046 1.98808 4.06239 1.22158 4.40731 1.22158H6.03996C6.40788 1.22158 6.80646 1.98808 6.80646 1.98808ZM2.04649 10.6112C1.80888 10.9715 1.46395 11.1861 1.0807 11.1861H13.1377C13.5517 11.1861 13.8429 10.9485 13.9272 10.5499C14.2645 8.87125 15.215 4.08062 15.215 4.08062C15.2686 3.69737 14.985 3.52108 14.7397 3.52108H12.2639V2.39432C12.2639 2.27168 12.0646 1.98808 11.758 1.98808H8.87601C8.47743 1.98808 8.20915 2.43265 8.20915 2.43265L7.66494 3.52108H4.28467C4.03939 3.52108 3.80178 3.66671 3.75579 3.90433C3.75579 3.90433 2.53705 9.03988 2.43741 9.52277C2.38375 9.80638 2.26878 10.2816 2.04649 10.6112ZM11.7887 3.52108H8.43144C8.43144 3.52108 8.87601 2.75458 9.29758 2.75458H11.0529C11.5971 2.75458 11.7887 3.52108 11.7887 3.52108Z" fill="#F9FFFE"/>
</svg>
