<svg width="16" height="12" viewBox="0 0 16 12" fill="none" xmlns="http://www.w3.org/2000/svg">
<path d="M3.06594 1.98759H0.597808C0.314203 1.98759 0.0305977 2.23287 0.0689227 2.63145L1.26466 10.2888C1.26466 10.2888 2.68269 4.64735 2.95863 3.29064C3.04294 2.88439 3.42619 2.75409 3.7098 2.75409H7.66494C7.66494 2.75409 7.12839 1.15977 7.07473 0.983475C6.98275 0.646215 6.81412 0.45459 6.47686 0.45459H3.93975C3.66381 0.45459 3.4032 0.630885 3.32655 0.94515C3.25756 1.25175 3.06594 1.98759 3.06594 1.98759ZM6.80646 1.98759H3.74046C3.74046 1.98759 4.06239 1.22109 4.40731 1.22109H6.03996C6.40788 1.22109 6.80646 1.98759 6.80646 1.98759ZM2.04649 10.6107C1.80888 10.971 1.46395 11.1856 1.0807 11.1856H13.1377C13.5517 11.1856 13.8429 10.948 13.9272 10.5494C14.2645 8.87076 15.215 4.08014 15.215 4.08014C15.2686 3.69689 14.985 3.52059 14.7397 3.52059H12.2639V2.39384C12.2639 2.2712 12.0646 1.98759 11.758 1.98759H8.87601C8.47743 1.98759 8.20915 2.43216 8.20915 2.43216L7.66494 3.52059H4.28467C4.03939 3.52059 3.80178 3.66622 3.75579 3.90384C3.75579 3.90384 2.53705 9.03939 2.43741 9.52229C2.38375 9.80589 2.26878 10.2811 2.04649 10.6107ZM11.7887 3.52059H8.43144C8.43144 3.52059 8.87601 2.75409 9.29758 2.75409H11.0529C11.5971 2.75409 11.7887 3.52059 11.7887 3.52059Z" fill="url(#paint0_linear)"/>
<defs>
<linearGradient id="paint0_linear" x1="0.0654297" y1="0.45459" x2="9.25556" y2="14.9643" gradientUnits="userSpaceOnUse">
<stop offset="0.0208333" stop-color="#41E7B0"/>
<stop offset="0.505208" stop-color="#2297F3"/>
<stop offset="0.947917" stop-color="#8358FC"/>
</linearGradient>
</defs>
</svg>
