<svg width="14" height="14" viewBox="0 0 14 14" fill="none" xmlns="http://www.w3.org/2000/svg">
<path d="M1.28568 8.14287L7.57139 8.14344C7.85962 8.14349 8.13719 8.25245 8.34849 8.44849C8.55978 8.64452 8.6892 8.91316 8.71082 9.20058L8.71425 9.28629V10.7143C8.71368 13.1143 6.26454 13.8572 4.42854 13.8572C2.62911 13.8572 0.240537 13.144 0.145679 10.856L0.142822 10.7143V9.28572C0.142822 8.68344 0.609108 8.18972 1.19997 8.14629L1.28568 8.14287ZM12.7143 8.14287L12.8 8.14629C13.0719 8.16684 13.3276 8.28392 13.5208 8.47641C13.714 8.6689 13.8321 8.92412 13.8537 9.19601L13.8571 9.28572V10.4286C13.8565 12.5766 11.8971 13.2857 10.4285 13.2857C9.82396 13.2857 9.13768 13.1629 8.53768 12.8714C8.71939 12.6554 8.87311 12.4154 8.99311 12.1469C9.54054 12.3869 10.1308 12.424 10.3805 12.428L10.5451 12.4263C11.1371 12.4063 12.9051 12.2069 12.9965 10.5617L13 10.4286V9.28572C12.9999 9.21888 12.9764 9.15418 12.9336 9.10283C12.8908 9.05148 12.8314 9.01672 12.7657 9.00458L12.7143 9.00001L9.25654 9.00058C9.2093 8.72084 9.09237 8.4575 8.91654 8.23487L8.83996 8.14287H12.7143ZM1.28568 9.00001L1.22854 9.00572C1.17369 9.01714 1.1233 9.04412 1.08339 9.08344C1.04407 9.12311 1.01708 9.17332 1.00568 9.22801L0.999965 9.28572V10.7143C0.999965 11.4794 1.33539 12.0452 2.02568 12.4429C2.59482 12.772 3.39139 12.9703 4.23368 12.9972L4.42854 13L4.67711 12.9943C5.54568 12.9554 7.75082 12.676 7.85311 10.8469L7.85711 10.7137V9.28629C7.85691 9.21948 7.83339 9.15483 7.79062 9.10351C7.74785 9.05218 7.6885 9.0174 7.62282 9.00515L7.57139 9.00058L1.28568 9.00001ZM4.42854 0.714294C5.26207 0.714294 6.06147 1.04542 6.65087 1.63482C7.24027 2.22422 7.57139 3.02361 7.57139 3.85715C7.57139 4.69069 7.24027 5.49009 6.65087 6.07949C6.06147 6.66889 5.26207 7.00001 4.42854 7.00001C3.595 7.00001 2.7956 6.66889 2.2062 6.07949C1.6168 5.49009 1.28568 4.69069 1.28568 3.85715C1.28568 3.02361 1.6168 2.22422 2.2062 1.63482C2.7956 1.04542 3.595 0.714294 4.42854 0.714294ZM10.7143 1.85715C11.0519 1.85715 11.3863 1.92366 11.6983 2.05289C12.0103 2.18212 12.2937 2.37153 12.5325 2.61031C12.7713 2.84908 12.9607 3.13256 13.0899 3.44454C13.2192 3.75652 13.2857 4.0909 13.2857 4.42858C13.2857 4.76626 13.2192 5.10064 13.0899 5.41262C12.9607 5.7246 12.7713 6.00807 12.5325 6.24685C12.2937 6.48563 12.0103 6.67504 11.6983 6.80427C11.3863 6.9335 11.0519 7.00001 10.7143 7.00001C10.0323 7.00001 9.37821 6.72909 8.89598 6.24685C8.41374 5.76462 8.14282 5.11057 8.14282 4.42858C8.14282 3.74659 8.41374 3.09254 8.89598 2.61031C9.37821 2.12807 10.0323 1.85715 10.7143 1.85715ZM4.42854 1.57144C3.16796 1.57144 2.14282 2.59658 2.14282 3.85715C2.14282 5.11772 3.16796 6.14287 4.42854 6.14287C5.68911 6.14287 6.71425 5.11772 6.71425 3.85715C6.71425 2.59658 5.68911 1.57144 4.42854 1.57144ZM10.7143 2.71429C9.76911 2.71429 8.99996 3.48344 8.99996 4.42858C8.99996 5.37372 9.76911 6.14287 10.7143 6.14287C11.6594 6.14287 12.4285 5.37372 12.4285 4.42858C12.4285 3.48344 11.6594 2.71429 10.7143 2.71429Z" fill="url(#paint0_linear)"/>
<defs>
<linearGradient id="paint0_linear" x1="0.142822" y1="0.714294" x2="12.4466" y2="15.0663" gradientUnits="userSpaceOnUse">
<stop offset="0.0208333" stop-color="#FFF"/>
<stop offset="0.505208" stop-color="#FFF"/>
<stop offset="0.947917" stop-color="#FFF"/>
</linearGradient>
</defs>
</svg>
