<svg width="17" height="15" viewBox="0 0 17 15" fill="none" xmlns="http://www.w3.org/2000/svg">
  <path d="M3.09282 1H10.4177C11.5687 1 12.5105 1.94177 12.5105 3.09282V7.38309C12.5105 8.53414 11.5687 9.47591 10.4177 9.47591H6.28436L3.40674 11.9873V9.47591H2.46497C1.62785 9.47591 1 8.84806 1 8.06326V3.09282C1 1.94177 1.94177 1 3.09282 1Z" stroke="url(#paint0_linear)" stroke-linecap="round" stroke-linejoin="round"/>
  <path d="M5.7085 10.4178C5.7085 10.9934 6.17938 11.4642 6.7549 11.5166L10.365 11.6212L13.2426 14.1326V11.6212H14.1844C14.9692 11.6212 15.6494 10.9934 15.6494 10.1562V5.18579C15.6494 4.03475 14.7076 3.09298 13.5566 3.09298H12.5102" stroke="url(#paint1_linear)" stroke-linecap="round" stroke-linejoin="round"/>
  <defs>
    <linearGradient id="paint0_linear" x1="1" y1="1" x2="11.2796" y2="13.0384" gradientUnits="userSpaceOnUse">
      <stop offset="0.0208333" stop-color="#41E7B0"/>
      <stop offset="0.505208" stop-color="#2297F3"/>
      <stop offset="0.947917" stop-color="#8358FC"/>
    </linearGradient>
    <linearGradient id="paint1_linear" x1="5.7085" y1="3.09298" x2="16.1659" y2="13.6195" gradientUnits="userSpaceOnUse">
      <stop offset="0.0208333" stop-color="#41E7B0"/>
      <stop offset="0.505208" stop-color="#2297F3"/>
      <stop offset="0.947917" stop-color="#8358FC"/>
    </linearGradient>
  </defs>
</svg>
