<svg width="16" height="16" viewBox="0 0 16 16" fill="none" xmlns="http://www.w3.org/2000/svg">
<g clip-path="url(#clip0)">
<mask id="path-1-inside-1" fill="white">
<path d="M1.13417 7.16544C1.54593 4.82989 3.19469 2.91774 5.37697 2.12987L5.27451 2.30741C5.13165 2.55473 5.21632 2.871 5.46364 3.01386C5.54513 3.06088 5.63401 3.08329 5.72178 3.08329C5.90042 3.08329 6.07424 2.99055 6.17001 2.82473L6.88294 1.59049C6.95154 1.47169 6.97023 1.33055 6.93472 1.19811C6.89921 1.06559 6.81261 0.952649 6.69381 0.884046L5.45923 0.171052C5.2117 0.0281909 4.89557 0.112997 4.75278 0.360246C4.60999 0.607563 4.69466 0.923829 4.94198 1.06662L5.07077 1.14102C2.52279 2.04314 0.595062 4.26679 0.115734 6.98583C-0.116208 8.29998 0.0018999 9.65434 0.457234 10.9026C0.533767 11.1124 0.731924 11.2426 0.943113 11.2426C1.00193 11.2426 1.06184 11.2324 1.12024 11.2111C1.38859 11.1132 1.52676 10.8164 1.42885 10.5481C1.03571 9.47052 0.933805 8.30088 1.13417 7.16544Z"/>
</mask>
<path d="M1.13417 7.16544C1.54593 4.82989 3.19469 2.91774 5.37697 2.12987L5.27451 2.30741C5.13165 2.55473 5.21632 2.871 5.46364 3.01386C5.54513 3.06088 5.63401 3.08329 5.72178 3.08329C5.90042 3.08329 6.07424 2.99055 6.17001 2.82473L6.88294 1.59049C6.95154 1.47169 6.97023 1.33055 6.93472 1.19811C6.89921 1.06559 6.81261 0.952649 6.69381 0.884046L5.45923 0.171052C5.2117 0.0281909 4.89557 0.112997 4.75278 0.360246C4.60999 0.607563 4.69466 0.923829 4.94198 1.06662L5.07077 1.14102C2.52279 2.04314 0.595062 4.26679 0.115734 6.98583C-0.116208 8.29998 0.0018999 9.65434 0.457234 10.9026C0.533767 11.1124 0.731924 11.2426 0.943113 11.2426C1.00193 11.2426 1.06184 11.2324 1.12024 11.2111C1.38859 11.1132 1.52676 10.8164 1.42885 10.5481C1.03571 9.47052 0.933805 8.30088 1.13417 7.16544Z" stroke="url(#paint0_linear)" stroke-width="2" mask="url(#path-1-inside-1)"/>
<mask id="path-2-inside-2" fill="white">
<path d="M13.3514 12.4592C13.1327 12.2754 12.8066 12.3036 12.6228 12.5223C11.1185 14.3118 8.75591 15.1719 6.45628 14.766C5.34008 14.5691 4.29854 14.0851 3.43179 13.3738H3.59817C3.88382 13.3738 4.11528 13.1423 4.11528 12.8567C4.11528 12.5711 3.88382 12.3396 3.59817 12.3396H2.22148C2.08861 12.327 1.95099 12.3655 1.84068 12.458C1.73312 12.5482 1.67182 12.6729 1.65872 12.8023C1.65865 12.8028 1.65858 12.8032 1.65851 12.8036C1.65851 12.8038 1.65851 12.8039 1.65851 12.8041C1.65707 12.8189 1.65638 12.8338 1.65624 12.8487C1.65617 12.8513 1.65583 12.8538 1.65583 12.8564L1.65527 14.2816C1.65514 14.5671 1.88659 14.7987 2.17218 14.7989H2.17239C2.4579 14.7989 2.68936 14.5675 2.6895 14.282L2.68957 14.1019C3.70966 14.9643 4.94762 15.5501 6.27667 15.7844C6.71284 15.8614 7.15086 15.899 7.58627 15.899C9.80786 15.899 11.9586 14.9196 13.4145 13.1878C13.5983 12.9692 13.57 12.6429 13.3514 12.4592Z"/>
</mask>
<path d="M13.3514 12.4592C13.1327 12.2754 12.8066 12.3036 12.6228 12.5223C11.1185 14.3118 8.75591 15.1719 6.45628 14.766C5.34008 14.5691 4.29854 14.0851 3.43179 13.3738H3.59817C3.88382 13.3738 4.11528 13.1423 4.11528 12.8567C4.11528 12.5711 3.88382 12.3396 3.59817 12.3396H2.22148C2.08861 12.327 1.95099 12.3655 1.84068 12.458C1.73312 12.5482 1.67182 12.6729 1.65872 12.8023C1.65865 12.8028 1.65858 12.8032 1.65851 12.8036C1.65851 12.8038 1.65851 12.8039 1.65851 12.8041C1.65707 12.8189 1.65638 12.8338 1.65624 12.8487C1.65617 12.8513 1.65583 12.8538 1.65583 12.8564L1.65527 14.2816C1.65514 14.5671 1.88659 14.7987 2.17218 14.7989H2.17239C2.4579 14.7989 2.68936 14.5675 2.6895 14.282L2.68957 14.1019C3.70966 14.9643 4.94762 15.5501 6.27667 15.7844C6.71284 15.8614 7.15086 15.899 7.58627 15.899C9.80786 15.899 11.9586 14.9196 13.4145 13.1878C13.5983 12.9692 13.57 12.6429 13.3514 12.4592Z" stroke="url(#paint1_linear)" stroke-width="2" mask="url(#path-2-inside-2)"/>
<mask id="path-3-inside-3" fill="white">
<path d="M15.9306 9.82432C15.7879 9.577 15.4715 9.49226 15.2243 9.63505L15.0542 9.73323C15.0612 9.69669 15.0695 9.66036 15.0759 9.62374C15.4282 7.62549 14.9813 5.60985 13.8176 3.94792C12.6539 2.28599 10.9127 1.17682 8.91475 0.824842C8.63344 0.775337 8.36523 0.963152 8.3158 1.24439C8.26622 1.52563 8.45404 1.79384 8.73528 1.84341C10.4611 2.14748 11.9653 3.10558 12.9705 4.54122C13.9737 5.9739 14.36 7.71098 14.0593 9.43365L13.9835 9.30245C13.8407 9.05513 13.5244 8.97025 13.2771 9.11304C13.0297 9.25577 12.945 9.57203 13.0877 9.81942L13.8004 11.0542C13.869 11.173 13.9819 11.2597 14.1144 11.2952C14.1585 11.307 14.2034 11.3128 14.2482 11.3128C14.3382 11.3128 14.4275 11.2893 14.5068 11.2435L15.7414 10.5308C15.9887 10.3879 16.0734 10.0716 15.9306 9.82432Z"/>
</mask>
<path d="M15.9306 9.82432C15.7879 9.577 15.4715 9.49226 15.2243 9.63505L15.0542 9.73323C15.0612 9.69669 15.0695 9.66036 15.0759 9.62374C15.4282 7.62549 14.9813 5.60985 13.8176 3.94792C12.6539 2.28599 10.9127 1.17682 8.91475 0.824842C8.63344 0.775337 8.36523 0.963152 8.3158 1.24439C8.26622 1.52563 8.45404 1.79384 8.73528 1.84341C10.4611 2.14748 11.9653 3.10558 12.9705 4.54122C13.9737 5.9739 14.36 7.71098 14.0593 9.43365L13.9835 9.30245C13.8407 9.05513 13.5244 8.97025 13.2771 9.11304C13.0297 9.25577 12.945 9.57203 13.0877 9.81942L13.8004 11.0542C13.869 11.173 13.9819 11.2597 14.1144 11.2952C14.1585 11.307 14.2034 11.3128 14.2482 11.3128C14.3382 11.3128 14.4275 11.2893 14.5068 11.2435L15.7414 10.5308C15.9887 10.3879 16.0734 10.0716 15.9306 9.82432Z" stroke="url(#paint2_linear)" stroke-width="2" mask="url(#path-3-inside-3)"/>
</g>
<defs>
<linearGradient id="paint0_linear" x1="0" y1="0.101654" x2="9.90434" y2="7.0108" gradientUnits="userSpaceOnUse">
<stop offset="0.0208333" stop-color="#41E7B0"/>
<stop offset="0.505208" stop-color="#2297F3"/>
<stop offset="0.947917" stop-color="#8358FC"/>
</linearGradient>
<linearGradient id="paint1_linear" x1="1.65527" y1="12.3372" x2="3.34357" y2="18.6324" gradientUnits="userSpaceOnUse">
<stop offset="0.0208333" stop-color="#41E7B0"/>
<stop offset="0.505208" stop-color="#2297F3"/>
<stop offset="0.947917" stop-color="#8358FC"/>
</linearGradient>
<linearGradient id="paint2_linear" x1="8.30786" y1="0.816925" x2="18.0561" y2="8.80316" gradientUnits="userSpaceOnUse">
<stop offset="0.0208333" stop-color="#41E7B0"/>
<stop offset="0.505208" stop-color="#2297F3"/>
<stop offset="0.947917" stop-color="#8358FC"/>
</linearGradient>
<clipPath id="clip0">
<rect width="16" height="16" fill="white"/>
</clipPath>
</defs>
</svg>
