<svg width="34" height="34" viewBox="0 0 34 34" fill="none" xmlns="http://www.w3.org/2000/svg">
<path d="M33.1783 15.8233L18.215 0.823285C17.9026 0.51029 17.4787 0.334123 17.0365 0.333498C16.5943 0.332873 16.1699 0.507841 15.8567 0.819952L0.821677 15.82C0.666466 15.9748 0.543324 16.1587 0.459302 16.3612C0.375281 16.5637 0.332031 16.7807 0.332031 17C0.332031 17.2192 0.375281 17.4362 0.459302 17.6387C0.543324 17.8412 0.666466 18.0251 0.821677 18.18L15.8567 33.18C16.5067 33.8283 17.5667 33.8266 18.215 33.1766L33.1783 18.1766C33.3329 18.0221 33.4556 17.8387 33.5393 17.6368C33.623 17.4349 33.666 17.2185 33.666 17C33.666 16.7814 33.623 16.565 33.5393 16.3631C33.4556 16.1612 33.3329 15.9778 33.1783 15.8233ZM22 23.6666H18.6667V17H13.6667V20.3333L8.66668 15.3333L13.6667 10.3333V13.6666H22V23.6666Z" fill="#F9FFFE"/>
</svg>
