<svg width="31" height="24" viewBox="0 0 31 24" fill="none" xmlns="http://www.w3.org/2000/svg">
<path d="M31 0V24H0.495743C0.00283927 24 -0.149062 23.6865 0.160941 23.3025L7.08795 14.6805C7.15739 14.5904 7.24593 14.5157 7.34763 14.4614C7.44933 14.4071 7.56184 14.3744 7.67764 14.3656C7.79343 14.3568 7.90984 14.3721 8.01905 14.4103C8.12827 14.4486 8.22778 14.509 8.31091 14.5875L10.5104 16.5885C10.5897 16.6664 10.6865 16.7256 10.7934 16.7613C10.9002 16.797 11.0141 16.8083 11.1262 16.7944C11.2383 16.7804 11.3456 16.7416 11.4396 16.6809C11.5336 16.6202 11.6119 16.5393 11.6682 16.4445L16.3911 9.3345C16.447 9.24023 16.5249 9.15989 16.6185 9.09984C16.7122 9.03979 16.819 9.0017 16.9305 8.9886C17.042 8.97549 17.1551 8.98773 17.2608 9.02434C17.3666 9.06095 17.4621 9.12093 17.5397 9.1995L20.9048 12.3435C21.2644 12.681 21.7712 12.6135 22.027 12.1935L29.9832 0.516C30.2405 0.0930001 30.6125 0 31 0Z" fill="#F9FFFE"/>
</svg>
