<svg width="24" height="24" viewBox="0 0 24 24" fill="none" xmlns="http://www.w3.org/2000/svg">
<path d="M12 6C13.4834 6 14.9334 6.43987 16.1668 7.26398C17.4001 8.08809 18.3614 9.25943 18.9291 10.6299C19.4968 12.0003 19.6453 13.5083 19.3559 14.9632C19.0665 16.418 18.3522 17.7544 17.3033 18.8033C16.2544 19.8522 14.918 20.5665 13.4632 20.8559C12.0083 21.1453 10.5003 20.9968 9.12987 20.4291C7.75943 19.8614 6.58809 18.9001 5.76398 17.6668C4.93987 16.4334 4.5 14.9834 4.5 13.5C4.5 11.5109 5.29018 9.60322 6.6967 8.1967C8.10322 6.79018 10.0109 6 12 6" stroke="white" stroke-width="1.5" stroke-linecap="round" stroke-linejoin="round"/>
<path d="M12 9V13" stroke="white" stroke-width="1.5" stroke-linecap="round" stroke-linejoin="round"/>
<path d="M10 3H14" stroke="white" stroke-width="1.5" stroke-linecap="round" stroke-linejoin="round"/>
<path d="M20 7L19 6" stroke="white" stroke-width="1.5" stroke-linecap="round" stroke-linejoin="round"/>
</svg>
