<svg width="438" height="354" viewBox="0 0 438 354" fill="none" xmlns="http://www.w3.org/2000/svg">
<g clip-path="url(#clip0)">
<path opacity="0.1" d="M225.31 354.004C334.627 354.004 423.247 274.758 423.247 177.002C423.247 79.2466 334.627 0 225.31 0C115.992 0 27.373 79.2466 27.373 177.002C27.373 274.758 115.992 354.004 225.31 354.004Z" fill="url(#paint0_linear)"/>
<path opacity="0.1" d="M72.983 278.879C113.29 278.879 145.966 273.805 145.966 267.545C145.966 261.285 113.29 256.21 72.983 256.21C32.6756 256.21 0 261.285 0 267.545C0 273.805 32.6756 278.879 72.983 278.879Z" fill="url(#paint1_linear)"/>
<path opacity="0.1" d="M108.062 332.877C123.739 332.877 136.449 330.247 136.449 327.002C136.449 323.757 123.739 321.126 108.062 321.126C92.3839 321.126 79.6746 323.757 79.6746 327.002C79.6746 330.247 92.3839 332.877 108.062 332.877Z" fill="url(#paint2_linear)"/>
<path opacity="0.1" d="M302.031 310.272C317.709 310.272 330.418 307.641 330.418 304.396C330.418 301.151 317.709 298.521 302.031 298.521C286.353 298.521 273.644 301.151 273.644 304.396C273.644 307.641 286.353 310.272 302.031 310.272Z" fill="url(#paint3_linear)"/>
<path opacity="0.1" d="M205.706 305.34C231.201 305.34 251.868 301.832 251.868 297.505C251.868 293.177 231.201 289.669 205.706 289.669C180.212 289.669 159.544 293.177 159.544 297.505C159.544 301.832 180.212 305.34 205.706 305.34Z" fill="url(#paint4_linear)"/>
<path opacity="0.1" d="M341.722 273.828C394.897 273.828 438.004 267.063 438.004 258.718C438.004 250.372 394.897 243.607 341.722 243.607C288.546 243.607 245.439 250.372 245.439 258.718C245.439 267.063 288.546 273.828 341.722 273.828Z" fill="url(#paint5_linear)"/>
<path d="M19.9557 232.345C17.7929 236.56 16.7828 241.275 17.028 246.009C17.2732 250.742 18.765 255.327 21.3517 259.295C22.2003 260.571 22.9811 261.489 23.6048 261.732C26.5963 262.909 32.5877 265.805 32.5877 265.805L47.0146 260.124C47.0146 260.124 49.3568 247.71 51.5718 237.051C53.0823 229.781 54.542 223.331 55.1403 222.2C56.6339 219.416 55.1403 189.097 55.1403 189.097C55.1403 189.097 40.7134 188.128 36.746 199.272L35.0106 202.673L19.9557 232.345Z" fill="#A8A8A8"/>
<path opacity="0.1" d="M39.1096 235.695C47.8803 245.767 51.5804 237.055 51.5804 237.055C53.0909 229.785 54.5506 223.335 55.1489 222.204C56.6425 219.419 55.1489 189.101 55.1489 189.101C55.1489 189.101 40.722 188.132 36.7546 199.275L35.0192 202.677C33.9074 211.592 32.8085 228.446 39.1096 235.695Z" fill="white"/>
<path d="M41.036 263.769L91.9544 257.876L101.039 197.98L94.1694 182.423C91.267 175.798 87.248 169.723 82.2884 164.464C78.8302 160.812 74.6506 157.301 70.2547 155.536C69.654 155.294 69.0406 155.083 68.4174 154.907C67.7009 154.689 66.9432 154.643 66.2059 154.774C65.4685 154.905 64.7724 155.208 64.1742 155.659C57.8942 160.119 55.6496 179.081 54.924 188.21C54.6255 191.961 54.1198 195.692 53.4092 199.387L41.036 263.769Z" fill="#A8A8A8"/>
<path opacity="0.1" d="M74.9348 197.334L64.3268 223.481C69.8854 219.408 78.1214 197.228 78.1214 197.228L85.5003 222.516L79.6193 195.863C80.4802 190.075 80.7305 184.212 80.3661 178.372C79.8993 171.68 73.6321 160.94 70.2291 155.532C69.6283 155.29 69.015 155.08 68.3918 154.903C67.6753 154.685 66.9176 154.639 66.1802 154.77C65.4429 154.901 64.7468 155.204 64.1486 155.656C66.8218 161.034 73.5048 174.482 75.5416 178.478C78.1257 183.512 74.9348 197.334 74.9348 197.334Z" fill="white"/>
<path d="M83.5954 265.805H111.223C112.359 265.805 113.484 265.574 114.528 265.125C115.573 264.676 116.515 264.019 117.298 263.194C118.081 262.368 118.689 261.392 119.084 260.325C119.478 259.257 119.652 258.12 119.595 256.982C118.984 245.112 117.435 223.948 113.752 210.513C111.762 203.264 109.449 199.458 107.328 197.583C106.333 196.621 105.048 196.016 103.674 195.862C102.632 195.771 101.589 196.025 100.704 196.584C95.5739 201.512 89.5825 227.442 89.5825 227.442L83.5954 265.805Z" fill="#A8A8A8"/>
<path opacity="0.1" d="M109.101 242.808C110.238 245.967 110.688 249.611 109.101 253.161L102.944 256.209C102.944 256.209 86.3957 249.181 88.407 234.777C88.407 234.777 88.9501 231.801 94.6487 232.03C97.8536 232.185 100.94 233.293 103.514 235.213C106.088 237.132 108.033 239.776 109.101 242.808Z" fill="white"/>
<path opacity="0.1" d="M102.524 204.944C102.333 199.893 105.07 198.141 107.332 197.584C106.337 196.622 105.052 196.017 103.678 195.862C102.104 197.182 100.988 198.969 100.492 200.964L94.7209 229.148C94.7209 229.148 102.847 213.409 102.524 204.944Z" fill="white"/>
<path d="M76.3268 227.229L90.0069 245.979L92.3788 261.455L83.5869 265.804L70.9125 268.61C69.6918 268.882 68.4367 268.964 67.1912 268.853L32.6049 265.804L37.3106 254.873L53.562 232.013L76.3268 227.229Z" fill="#A8A8A8"/>
<path opacity="0.1" d="M71.0311 220.794C71.0311 220.794 80.3661 221.436 76.8612 237.507C73.3563 253.578 37.2934 254.866 37.2934 254.866C37.2934 254.866 44.9566 241.261 56.7442 231.512C58.0681 230.419 59.3453 229.28 60.5631 228.064C63.2745 225.347 68.4597 220.572 71.0311 220.794Z" fill="white"/>
<path opacity="0.1" d="M79.4285 232.91C79.4285 232.91 92.0774 244.445 90.8851 262.195L79.4285 232.91Z" fill="black"/>
<path opacity="0.1" d="M100.708 196.584C100.708 196.584 87.4355 214.271 85.9461 241.485L100.708 196.584Z" fill="black"/>
<path opacity="0.1" d="M55.1532 189.09C55.1532 189.09 61.5774 218.32 45.5381 240.351L55.1532 189.09Z" fill="black"/>
<path d="M172.159 297.344H241.383C242.052 297.341 242.709 297.164 243.29 296.83C243.87 296.497 244.355 296.019 244.697 295.443C245.038 294.866 245.225 294.211 245.239 293.541C245.254 292.87 245.095 292.208 244.778 291.617L210.183 227.214C209.851 226.597 209.359 226.081 208.758 225.721C208.158 225.362 207.471 225.172 206.771 225.172C206.071 225.172 205.385 225.362 204.784 225.721C204.183 226.081 203.691 226.597 203.36 227.214L168.748 291.617C168.43 292.209 168.271 292.873 168.286 293.545C168.301 294.217 168.489 294.873 168.833 295.45C169.177 296.027 169.664 296.505 170.247 296.837C170.83 297.169 171.489 297.344 172.159 297.344ZM211.176 285.576H202.367V276.754H211.176V285.576ZM211.176 270.87H202.367V253.221H211.176V270.87Z" fill="#464353"/>
<path opacity="0.1" d="M172.159 297.344H241.383C242.052 297.341 242.709 297.164 243.29 296.83C243.87 296.497 244.355 296.019 244.697 295.443C245.038 294.866 245.225 294.211 245.239 293.541C245.254 292.87 245.095 292.208 244.778 291.617L210.183 227.214C209.851 226.597 209.359 226.081 208.758 225.721C208.158 225.362 207.471 225.172 206.771 225.172C206.071 225.172 205.385 225.362 204.784 225.721C204.183 226.081 203.691 226.597 203.36 227.214L168.748 291.617C168.43 292.209 168.271 292.873 168.286 293.545C168.301 294.217 168.489 294.873 168.833 295.45C169.177 296.027 169.664 296.505 170.247 296.837C170.83 297.169 171.489 297.344 172.159 297.344ZM211.176 285.576H202.367V276.754H211.176V285.576ZM211.176 270.87H202.367V253.221H211.176V270.87Z" fill="black"/>
<path d="M172.159 299.469H241.383C242.052 299.466 242.709 299.289 243.29 298.955C243.87 298.622 244.355 298.144 244.697 297.568C245.038 296.991 245.225 296.336 245.239 295.666C245.254 294.995 245.095 294.333 244.778 293.742L210.183 229.339C209.851 228.722 209.359 228.206 208.758 227.846C208.158 227.487 207.471 227.297 206.771 227.297C206.071 227.297 205.385 227.487 204.784 227.846C204.183 228.206 203.691 228.722 203.36 229.339L168.748 293.742C168.43 294.334 168.271 294.998 168.286 295.67C168.301 296.342 168.489 296.998 168.833 297.575C169.177 298.152 169.664 298.63 170.247 298.962C170.83 299.294 171.489 299.469 172.159 299.469ZM211.176 287.701H202.367V278.879H211.176V287.701ZM211.176 272.995H202.367V255.346H211.176V272.995Z" fill="#464353"/>
<path d="M99.2102 100.644C99.1635 101.533 99.6048 102.345 99.8637 103.195C100.292 104.837 100.249 106.567 99.7406 108.186C99.2654 109.887 98.4676 111.685 99.0744 113.348C99.2145 113.739 99.4266 114.096 99.5539 114.487C100.08 116.103 99.1041 117.803 98.0349 119.126L102.231 122.072C102.844 122.581 103.573 122.93 104.353 123.088C105.138 123.182 106.05 122.761 106.211 121.987C106.267 121.723 106.211 121.447 106.262 121.179C106.314 120.833 106.448 120.504 106.652 120.22C106.857 119.936 107.126 119.705 107.438 119.547C108.068 119.237 108.771 119.106 109.47 119.168C112.046 119.309 114.235 121.005 116.578 122.093C118.122 122.763 119.722 123.295 121.36 123.683C122.289 123.926 123.32 124.147 124.16 123.683C125 123.22 125.387 122.144 125.323 121.171C125.192 120.202 124.891 119.265 124.432 118.403C123.969 117.542 123.69 116.593 123.613 115.618C123.613 114.19 124.394 112.889 124.657 111.486C125.026 109.492 124.275 107.464 123.358 105.652C122.442 103.841 121.33 102.098 120.884 100.125C120.796 99.5274 120.641 98.9412 120.422 98.3779C120.21 97.9502 119.922 97.5642 119.573 97.2385C117.999 95.6782 115.754 94.9384 113.556 94.7769C111.359 94.6153 109.139 94.9767 106.958 95.3551C106.126 95.4741 105.307 95.669 104.51 95.9375C103.371 96.3909 102.29 96.9774 101.289 97.6849C100.296 98.3737 99.2739 99.3813 99.2102 100.644Z" fill="#464353"/>
<g opacity="0.1">
<path opacity="0.1" d="M123.6 114.745C123.6 114.873 123.6 115 123.626 115.123C123.757 113.878 124.411 112.709 124.644 111.463C124.734 110.964 124.761 110.455 124.725 109.949C124.725 110.17 124.682 110.374 124.644 110.612C124.377 112.015 123.583 113.316 123.6 114.745Z" fill="black"/>
<path opacity="0.1" d="M100.148 104.895C100.198 104.034 100.102 103.172 99.8638 102.344C99.6127 101.698 99.4071 101.036 99.2485 100.362C99.2485 100.452 99.2146 100.537 99.2103 100.626C99.1637 101.514 99.605 102.327 99.8638 103.177C100.028 103.736 100.123 104.313 100.148 104.895Z" fill="black"/>
<path opacity="0.1" d="M125.285 120.936C125.255 121.316 125.137 121.683 124.939 122.009C124.742 122.335 124.471 122.609 124.148 122.811C123.299 123.274 122.276 123.053 121.347 122.811C119.709 122.423 118.108 121.889 116.565 121.216C114.223 120.132 112.033 118.436 109.458 118.295C108.758 118.233 108.056 118.364 107.425 118.674C107.113 118.832 106.844 119.063 106.64 119.347C106.435 119.631 106.301 119.96 106.25 120.306C106.22 120.574 106.25 120.851 106.199 121.114C106.033 121.888 105.125 122.309 104.34 122.215C103.56 122.057 102.832 121.708 102.219 121.199L98.4466 118.546C98.3066 118.738 98.1665 118.925 98.0223 119.099L102.219 122.05C102.832 122.558 103.56 122.907 104.34 123.066C105.125 123.159 106.038 122.738 106.199 121.964C106.254 121.701 106.199 121.425 106.25 121.157C106.301 120.81 106.435 120.481 106.64 120.197C106.844 119.913 107.113 119.682 107.425 119.524C108.056 119.214 108.758 119.083 109.458 119.146C112.033 119.286 114.223 120.982 116.565 122.067C118.108 122.74 119.709 123.273 121.347 123.661C122.276 123.903 123.308 124.124 124.148 123.661C124.988 123.197 125.374 122.122 125.31 121.148C125.306 121.076 125.293 121.008 125.285 120.936Z" fill="black"/>
<path opacity="0.1" d="M99.554 114.465C99.6063 114.635 99.6446 114.81 99.6685 114.987C99.7343 114.527 99.6951 114.057 99.554 113.614C99.4267 113.223 99.2145 112.866 99.0745 112.475C98.9724 112.191 98.9068 111.895 98.8793 111.595C98.8166 112.179 98.8833 112.77 99.0745 113.325C99.2145 113.716 99.4267 114.078 99.554 114.465Z" fill="black"/>
</g>
<path d="M104.535 275.793C104.506 275.914 104.438 276.021 104.34 276.099C104.237 276.152 104.121 276.177 104.005 276.171C102.494 276.205 100.984 276.171 99.4775 276.277C98.0518 276.401 96.6218 276.702 95.2003 276.541C94.7456 276.557 94.2971 276.431 93.917 276.18C93.5369 275.93 93.2439 275.567 93.0787 275.142C92.9891 274.957 92.9097 274.766 92.8411 274.572C92.4495 273.57 92.2522 272.502 92.2598 271.426C92.2598 271.141 92.2598 270.865 92.2598 270.576C92.2412 270.264 92.2001 269.955 92.1368 269.649C92.0081 269.299 92.0233 268.912 92.1792 268.573C92.7817 267.472 94.2371 267.251 95.3573 267.166C97.9525 266.97 100.562 267.162 103.101 267.736C103.301 268.714 103.526 269.683 103.763 270.652C103.939 271.364 104.125 272.072 104.323 272.778C104.456 273.215 104.564 273.66 104.646 274.109C104.751 274.671 104.713 275.25 104.535 275.793Z" fill="#464353"/>
<path opacity="0.06" d="M104.536 275.792C104.506 275.914 104.438 276.021 104.34 276.099C104.237 276.152 104.121 276.177 104.005 276.171C102.495 276.205 100.984 276.171 99.4777 276.277C98.052 276.4 96.622 276.702 95.2005 276.541C94.7458 276.557 94.2973 276.431 93.9172 276.18C93.537 275.93 93.2441 275.567 93.0789 275.142C92.9892 274.957 92.9099 274.766 92.8413 274.572H93.3844C95.1708 274.572 96.9615 274.509 98.7478 274.509C99.2867 274.509 99.8299 274.483 100.365 274.419C100.899 274.355 101.336 274.266 101.824 274.207C102.555 274.136 103.288 274.107 104.022 274.117H104.625C104.735 274.674 104.704 275.25 104.536 275.792Z" fill="black"/>
<path d="M135.787 267.896C135.314 268.45 134.71 268.875 134.03 269.134C131.009 270.409 127.517 269.835 124.398 268.798C123.7 268.538 122.984 268.332 122.255 268.181C121.59 268.088 120.919 268.041 120.248 268.041C119.769 268.041 119.289 268.003 118.81 267.973C117.596 267.896 116.387 267.777 115.182 267.658C114.341 267.597 113.507 267.47 112.687 267.28C112.453 267.22 112.229 267.128 112.02 267.008C111.842 266.929 111.69 266.802 111.582 266.64C111.474 266.478 111.414 266.289 111.409 266.094C111.443 265.554 112.003 265.243 112.496 265.01C116.862 263.118 121.606 262.297 126.316 261.638C126.795 261.558 127.261 261.415 127.703 261.213C128.234 261 128.289 261.349 128.552 261.74C128.676 261.921 128.818 262.089 128.976 262.242C129.488 262.705 130.089 263.058 130.741 263.279C131.887 263.704 133.113 263.819 134.259 264.223C134.606 264.344 134.937 264.503 135.248 264.699C135.522 264.849 135.758 265.059 135.938 265.314C136.119 265.569 136.238 265.862 136.288 266.171C136.338 266.479 136.317 266.795 136.227 267.094C136.136 267.393 135.978 267.668 135.765 267.896H135.787Z" fill="#464353"/>
<path opacity="0.06" d="M135.787 267.897C135.314 268.451 134.71 268.876 134.03 269.135C131.009 270.41 127.517 269.836 124.398 268.799C123.7 268.539 122.984 268.333 122.255 268.182C121.59 268.089 120.919 268.042 120.248 268.042C119.769 268.042 119.289 268.004 118.81 267.974C119.2 267.604 119.599 267.243 120.006 266.894C120.301 266.617 120.641 266.393 121.012 266.231C121.473 266.079 121.964 266.046 122.442 266.133C124.869 266.469 127.05 268.174 129.498 268.025C130.639 267.893 131.742 267.536 132.744 266.975C133.559 266.642 134.286 266.124 134.866 265.461C135.041 265.233 135.175 264.975 135.26 264.7C135.534 264.85 135.771 265.06 135.951 265.315C136.131 265.57 136.251 265.863 136.301 266.172C136.351 266.48 136.33 266.796 136.239 267.095C136.149 267.394 135.991 267.669 135.778 267.897H135.787Z" fill="black"/>
<path d="M134.934 194.009C134.509 194.859 133.966 195.781 133.05 196.045C131.717 196.428 130.436 195.229 129.855 193.97C129.062 192.123 128.913 190.063 129.43 188.12C129.672 187.138 130.041 186.194 130.249 185.208C130.399 184.378 130.49 183.538 130.521 182.695C130.646 181.438 130.616 180.17 130.432 178.92C129.748 175.268 126.613 172.542 125.569 168.954C125.043 167.164 125.068 165.259 125.098 163.393C125.088 162.921 125.137 162.45 125.242 161.99C125.274 161.864 125.316 161.742 125.37 161.624C126.07 160.068 128.145 159.856 129.587 158.95C130.385 158.452 132.197 156.85 132.867 158.312C133.012 158.638 133.12 158.979 133.19 159.328C133.466 160.629 133.355 162.156 133.423 163.384C133.682 168.027 134.836 172.661 134.301 177.279C134.174 178.066 134.111 178.862 134.115 179.659C134.229 181.658 135.477 183.388 136.05 185.301C136.932 188.18 136.224 191.313 134.934 194.009Z" fill="#FBBEBE"/>
<path opacity="0.1" d="M133.211 159.337C132.896 159.222 132.55 159.222 132.235 159.337L129.362 160.187C128.356 160.456 127.375 160.813 126.43 161.254C126.018 161.457 125.627 161.7 125.263 161.981C125.295 161.856 125.338 161.733 125.391 161.615C126.091 160.059 128.166 159.847 129.609 158.941C130.406 158.444 132.218 156.841 132.889 158.303C133.034 158.635 133.143 158.981 133.211 159.337Z" fill="black"/>
<path d="M133.398 159.013C133.225 158.908 133.029 158.845 132.827 158.828C132.626 158.812 132.423 158.843 132.235 158.92L129.362 159.77C128.356 160.039 127.375 160.396 126.43 160.837C125.929 161.081 125.46 161.387 125.034 161.747C123.693 159.413 123.337 156.645 123.091 153.967C122.955 152.406 122.853 150.842 122.794 149.29C122.727 148.173 122.75 147.053 122.862 145.94C123.023 144.664 123.392 143.418 123.621 142.151C123.758 141.41 123.846 140.66 123.884 139.907C123.994 138.261 123.919 136.608 123.66 134.979C123.413 133.248 123.018 131.541 122.48 129.877C122.208 129.116 121.882 128.381 121.585 127.632L121.483 127.369C120.946 125.997 120.508 124.589 120.172 123.155C120.036 122.569 120.027 121.952 119.578 121.552C120 121.502 120.426 121.484 120.851 121.501C120.935 121.501 121.02 121.501 121.105 121.501C122.848 121.611 124.528 122.2 125.959 123.202C127.803 124.535 129.205 126.393 129.982 128.534C130.877 130.927 131.026 133.529 131.14 136.084C131.369 141.107 131.511 146.132 131.565 151.161C131.565 152.126 131.607 153.155 132.159 153.95C132.313 154.146 132.455 154.351 132.583 154.566C132.782 154.991 132.753 155.463 132.914 155.893C133.032 156.15 133.167 156.4 133.317 156.641C133.507 157.005 133.613 157.407 133.627 157.818C133.641 158.229 133.562 158.637 133.398 159.013Z" fill="#464353"/>
<path d="M105.155 109.108C104.731 108.967 104.306 108.819 103.882 108.683L104.765 108.751C104.912 108.85 105.043 108.97 105.155 109.108Z" fill="#FBBEBE"/>
<path d="M122.531 124.453C122.446 124.742 122.361 125.031 122.268 125.303C122.052 126.002 121.79 126.685 121.483 127.348C121.002 128.438 120.321 129.427 119.476 130.265C119.197 130.559 118.854 130.786 118.474 130.928C118.153 131.01 117.821 131.042 117.49 131.021C116.358 131.021 115.227 131.004 114.095 130.97C113.214 130.98 112.335 130.893 111.473 130.711C110.524 130.452 109.622 130.044 108.8 129.504C105.63 127.539 103.025 124.546 101.909 121C101.769 120.55 101.671 120.01 101.981 119.657C102.286 119.408 102.67 119.276 103.063 119.287H103.114C104.026 119.168 104.905 118.866 105.698 118.398C106.212 118.135 106.626 117.711 106.878 117.191C107.049 116.574 107.036 115.921 106.839 115.312L105.897 111.026C105.799 110.34 105.542 109.686 105.146 109.117C105.422 109.215 105.698 109.304 105.995 109.381C108.617 110.091 111.486 109.661 114.057 110.592C115.042 110.954 116.026 111.604 116.323 112.616C116.819 114.317 115.16 116.081 115.636 117.782C115.954 118.938 117.129 119.606 118.181 120.146L118.89 120.507L120.855 121.506L121.126 121.642L121.169 121.664C121.788 121.978 122.442 122.369 122.658 123.037C122.75 123.511 122.706 124.002 122.531 124.453Z" fill="#FBBEBE"/>
<path opacity="0.1" d="M127.707 134.435C127.636 135.522 127.371 136.587 126.927 137.581C126.075 139.3 125.618 141.189 125.59 143.108C125.263 148.848 123.087 155.68 126.205 160.501C126.282 160.62 126.358 160.739 126.43 160.863C125.929 161.107 125.46 161.412 125.034 161.772C123.693 159.438 123.337 156.671 123.091 153.992C122.955 152.432 122.853 150.867 122.794 149.315C122.727 148.198 122.75 147.078 122.862 145.965C123.023 144.69 123.392 143.444 123.621 142.177C123.758 141.435 123.846 140.685 123.884 139.932C123.994 138.286 123.919 136.633 123.659 135.004C123.413 133.273 123.018 131.566 122.48 129.903C122.208 129.141 121.882 128.406 121.585 127.658L121.483 127.394C121.002 128.484 120.321 129.473 119.476 130.311C119.197 130.605 118.854 130.832 118.474 130.974C118.153 131.056 117.821 131.088 117.49 131.067C116.358 131.067 115.227 131.05 114.095 131.016C113.214 131.026 112.335 130.939 111.473 130.757C110.524 130.498 109.622 130.09 108.8 129.55C105.63 127.585 103.025 124.592 101.909 121.046C101.769 120.596 101.671 120.056 101.981 119.703C102.286 119.454 102.67 119.323 103.063 119.333H103.114L106.933 124.065C107.371 124.566 107.742 125.122 108.036 125.719C108.093 125.919 108.212 126.096 108.375 126.225C108.508 126.286 108.654 126.312 108.8 126.301C112.385 126.301 117.163 126.301 120.749 126.301C120.76 125.665 120.577 125.04 120.222 124.511C120.112 124.537 119.964 124.546 120.193 124.477C119.985 123.097 119.54 121.764 118.877 120.536C118.838 120.452 118.794 120.37 118.746 120.29C118.461 119.869 118.249 119.403 118.118 118.912C118.571 118.768 119.057 118.768 119.51 118.912C120.032 119.137 120.303 119.703 120.532 120.226C120.727 120.651 120.923 121.106 121.097 121.552C121.097 121.599 121.139 121.65 121.156 121.697C121.526 122.577 121.763 123.507 121.86 124.456C121.886 124.805 121.971 125.247 122.259 125.362C122.305 125.383 122.354 125.394 122.403 125.396C122.702 125.286 123.027 125.268 123.336 125.344C123.645 125.42 123.924 125.586 124.139 125.821C124.556 126.3 124.848 126.876 124.988 127.496C125.126 128.116 125.327 128.72 125.59 129.299C126.137 130.345 125.302 130.812 126.29 131.454C126.753 131.709 127.15 132.067 127.453 132.5C127.733 133.104 127.821 133.779 127.707 134.435Z" fill="black"/>
<path opacity="0.1" d="M103.063 267.751C103.263 268.729 103.488 269.699 103.725 270.668L103.7 270.728C101.761 269.877 99.7747 268.989 97.6574 268.802C95.6928 268.631 93.5585 269.163 92.2218 270.591C92.2033 270.28 92.1621 269.97 92.0988 269.665C91.9701 269.315 91.9854 268.928 92.1412 268.589C92.7438 267.488 94.1992 267.267 95.3194 267.182C97.9146 266.986 100.524 267.178 103.063 267.751Z" fill="black"/>
<path opacity="0.1" d="M119.777 125.29C119.976 125.29 119.904 125.29 119.807 125.324C119.709 125.358 119.548 125.358 119.777 125.29Z" fill="black"/>
<path opacity="0.1" d="M128.997 262.242C127.105 263.45 125.327 264.829 123.685 266.362C123.208 266.873 122.64 267.29 122.009 267.59C121.358 267.8 120.67 267.871 119.989 267.799C117.32 267.69 114.659 267.426 112.02 267.008C111.842 266.929 111.69 266.802 111.582 266.64C111.474 266.478 111.414 266.289 111.409 266.094C111.443 265.554 112.003 265.243 112.496 265.01C116.862 263.118 121.606 262.297 126.316 261.638C126.795 261.558 127.261 261.415 127.703 261.213C128.234 261 128.289 261.349 128.552 261.74C128.683 261.922 128.832 262.09 128.997 262.242Z" fill="black"/>
<path d="M97.865 120.359C98.4888 120.916 99.2016 121.366 99.8339 121.906C101.531 123.348 102.6 125.363 103.653 127.327C103.029 127.553 102.354 127.599 101.705 127.459C101.371 129.345 101.428 131.28 101.871 133.143C101.022 133.727 100.362 134.547 99.9739 135.503C99.6722 136.473 99.4648 137.469 99.3544 138.479C98.7434 142.903 98.1295 147.328 97.5129 151.752C97.5005 152.186 97.352 152.604 97.0885 152.947C96.9708 153.042 96.8627 153.149 96.766 153.266C96.6362 153.552 96.5849 153.868 96.6175 154.18C96.5921 154.49 96.3884 154.86 96.0787 154.818C95.9281 154.782 95.7947 154.695 95.701 154.571C95.3912 154.242 95.1074 153.89 94.8524 153.517C92.3489 158.33 91.1438 163.517 89.8199 168.78C88.8737 172.53 87.9275 176.322 87.8808 180.191C87.8936 182.022 88.0083 183.85 88.2245 185.667L88.5979 189.4C88.8992 192.402 89.2004 195.408 89.5272 198.409C89.7393 200.314 89.9515 202.236 90.6346 204.03C91.653 206.755 90.5243 209.829 90.9571 212.712C91.2966 214.969 91.9712 217.303 91.2923 219.48C91.0208 220.352 90.5455 221.147 90.1891 221.989C89.315 224.08 89.2259 226.406 89.1495 228.672C89.0121 230.659 89.0861 232.654 89.3702 234.624C89.7351 236.661 90.554 238.655 90.3928 240.713C90.1679 243.642 88.0123 246.146 87.7493 249.071C87.5413 251.405 88.564 253.659 89.6629 255.729C90.4734 257.256 89.3447 259.228 88.9161 260.908C88.0675 264.198 89.4805 267.642 91.2117 270.563C91.2559 270.663 91.334 270.745 91.4323 270.793C91.6318 270.865 91.81 270.669 91.9415 270.504C93.2442 268.828 95.5525 268.195 97.6699 268.378C99.7872 268.561 101.769 269.436 103.712 270.304L106.466 264.16C106.933 263.119 107.408 261.992 107.175 260.874C107.009 260.074 106.496 259.398 106.131 258.667C105.282 256.941 105.24 254.93 105.231 252.996L105.18 242.069C107.327 239.365 108.639 236.151 109.466 232.792C110.735 237.516 110.823 242.481 109.721 247.247C109.517 247.968 109.375 248.705 109.296 249.45C109.131 252.481 111.503 255.045 112.135 258.012C112.196 258.239 112.213 258.476 112.186 258.71C112.115 258.997 111.996 259.27 111.834 259.517C110.696 261.584 110.82 264.088 110.985 266.443C113.961 266.962 116.967 267.285 119.985 267.408C120.665 267.477 121.352 267.406 122.005 267.2C122.635 266.898 123.204 266.48 123.681 265.967C125.607 264.151 127.723 262.548 129.99 261.184C128.724 259.079 126.952 257.325 124.835 256.082C125.518 255.075 127.075 255.155 127.983 254.348C128.439 253.896 128.737 253.308 128.832 252.672C129.171 251.006 128.751 249.271 128.331 247.634C127.517 244.412 126.698 241.176 125.361 238.132C124.756 236.881 124.224 235.596 123.766 234.284C122.654 230.619 123.43 226.631 122.59 222.886C122.319 221.687 121.882 220.45 122.187 219.255C122.654 217.414 124.733 216.321 125.191 214.476C126.833 207.907 127.126 201.101 128.06 194.396C128.268 193.115 128.38 191.82 128.395 190.523C128.395 189.166 128.153 187.823 128.055 186.471C127.674 181.059 129.4 175.659 128.959 170.251C128.677 166.918 127.581 163.706 125.768 160.898C122.65 156.072 124.826 149.244 125.153 143.504C125.178 141.585 125.633 139.696 126.485 137.977C126.934 136.984 127.2 135.919 127.27 134.831C127.401 134.161 127.318 133.466 127.033 132.846C126.734 132.411 126.337 132.052 125.874 131.8C124.886 131.154 125.722 130.686 125.174 129.64C124.911 129.062 124.709 128.458 124.572 127.837C124.433 127.218 124.141 126.643 123.723 126.166C123.508 125.931 123.229 125.765 122.92 125.689C122.611 125.614 122.286 125.632 121.988 125.741C121.585 125.741 121.474 125.206 121.44 124.802C121.326 123.322 120.715 121.932 120.116 120.571C119.887 120.048 119.616 119.483 119.094 119.258C118.639 119.115 118.152 119.115 117.698 119.258C117.829 119.751 118.043 120.218 118.33 120.639C119.065 121.932 119.555 123.351 119.773 124.823C119.348 124.95 120.197 124.823 119.773 124.823C120.153 125.353 120.348 125.994 120.329 126.647C116.747 126.647 111.969 126.647 108.384 126.647C108.238 126.658 108.092 126.632 107.96 126.57C107.796 126.441 107.676 126.264 107.616 126.064C107.324 125.467 106.953 124.912 106.513 124.415L102.312 119.224C102.219 119.088 102.095 118.976 101.951 118.896C101.778 118.847 101.594 118.847 101.421 118.896C100.059 119.096 99.0531 119.666 97.865 120.359Z" fill="#2C81FF"/>
<path opacity="0.1" d="M112.941 190.697C113.665 190.687 114.379 190.872 115.008 191.232C115.319 191.416 115.578 191.678 115.758 191.993C115.938 192.308 116.034 192.664 116.034 193.027C115.988 193.83 115.372 194.468 114.927 195.152C114.651 195.569 114.431 196.021 114.273 196.496C114.225 196.604 114.213 196.725 114.24 196.84C114.29 197.002 114.464 197.083 114.613 197.155C115.153 197.399 115.614 197.79 115.944 198.283C116.275 198.775 116.462 199.351 116.484 199.944C116.446 201.602 114.829 202.946 114.918 204.621C114.959 204.969 115.018 205.316 115.097 205.658C115.291 207.086 115.093 208.539 114.524 209.863C114.01 211.198 113.31 212.452 112.759 213.774C111.269 217.367 110.947 221.346 111.061 225.254C111.15 227.907 110.213 230.432 109.364 232.957C109.844 227.871 109.971 222.756 109.746 217.652C109.687 216.266 109.513 214.956 109.576 213.566C109.678 211.359 110.909 209.353 111.223 207.189C111.401 205.951 111.282 204.693 111.312 203.443C111.371 200.892 112.063 198.375 112.109 195.816C112.169 194.009 112.003 192.146 112.941 190.697Z" fill="black"/>
<path d="M95.2344 121.268C94.3908 121.689 93.6015 122.212 92.8837 122.824C92.1337 123.57 91.5064 124.431 91.0252 125.375C90.4392 126.444 89.9136 127.546 89.451 128.674C88.8527 130.136 88.3562 131.756 88.7678 133.283C89.1412 134.664 90.1978 135.74 90.9276 136.969C91.6574 138.197 92.086 139.639 92.6461 140.987C93.3929 142.785 94.4155 144.46 95.1538 146.263C95.8921 148.065 96.3377 150.089 95.8709 151.964C95.7351 152.517 94.8398 152.946 94.8398 153.512C94.8398 154.447 96.1892 155.463 97.0845 155.735C98.1156 156.054 99.24 155.578 100.084 154.885C101.633 153.656 102.575 151.815 103.271 149.962C104.391 146.986 104.99 143.827 105.528 140.689C105.919 138.385 106.284 136.076 106.492 133.755C106.683 131.663 106.742 129.503 106.19 127.496C105.676 125.654 104.674 123.986 103.292 122.666C102.189 121.604 100.381 120.175 98.7775 120.137C97.5088 120.132 96.3207 120.668 95.2344 121.268Z" fill="#464353"/>
<path d="M107.298 172.521C107.252 172.812 107.143 173.089 106.98 173.333C106.817 173.578 106.602 173.784 106.352 173.937C105.851 174.242 105.305 174.466 104.735 174.6C103.598 174.932 102.393 175.238 101.243 174.944C100.339 174.65 99.5047 174.174 98.7902 173.546L85.9418 163.691C84.9097 162.957 83.9606 162.113 83.1116 161.174C82.6242 160.567 82.1763 159.929 81.7708 159.265C81.2338 158.504 80.8133 157.667 80.5233 156.782C80.4197 156.392 80.3683 155.99 80.3705 155.587C80.3671 155.206 80.4605 154.83 80.6421 154.494C80.9518 153.976 81.6138 153.869 82.1569 153.725C83.9798 153.253 85.872 153.109 87.7452 153.3C87.9097 153.292 88.0724 153.338 88.2086 153.43C88.3449 153.523 88.4473 153.658 88.5005 153.814C88.7848 154.337 89.0309 154.881 89.2855 155.425C89.6762 156.353 90.1854 157.226 90.8003 158.023C91.3927 158.668 92.0233 159.278 92.6885 159.847C94.0463 161.123 95.1581 162.653 96.605 163.827C98.2811 165.183 100.318 165.995 102.227 166.994C104.137 167.993 106.021 169.29 106.98 171.224C107.202 171.619 107.312 172.068 107.298 172.521Z" fill="#FBBEBE"/>
<path opacity="0.1" d="M122.17 103.764C122.171 106.449 121.148 109.032 119.311 110.985C117.473 112.939 114.961 114.116 112.287 114.275C109.612 114.434 106.979 113.563 104.924 111.841C102.869 110.119 101.548 107.675 101.231 105.01C100.915 102.344 101.627 99.6584 103.221 97.5013C104.815 95.3441 107.172 93.8787 109.809 93.4047C112.446 92.9307 115.164 93.4839 117.407 94.9512C119.65 96.4184 121.249 98.6889 121.877 101.298C122.072 102.106 122.17 102.934 122.17 103.764Z" fill="black"/>
<path d="M122.17 103.339C122.171 106.023 121.148 108.606 119.311 110.559C117.473 112.513 114.961 113.69 112.287 113.849C109.612 114.008 106.979 113.137 104.924 111.415C102.869 109.693 101.548 107.249 101.231 104.584C100.915 101.919 101.627 99.2326 103.221 97.0755C104.815 94.9184 107.172 93.453 109.809 92.9789C112.446 92.5049 115.164 93.0581 117.407 94.5254C119.65 95.9926 121.249 98.2631 121.877 100.873C122.072 101.68 122.17 102.508 122.17 103.339Z" fill="#FBBEBE"/>
<path opacity="0.1" d="M89.2855 155.408C88.8017 155.719 88.0846 155.617 87.4864 155.481C85.1271 154.954 82.5218 154.575 80.3705 155.587C80.3671 155.206 80.4605 154.83 80.6421 154.494C80.9518 153.976 81.6138 153.869 82.1569 153.725C83.9798 153.253 85.872 153.109 87.7452 153.3C87.9097 153.292 88.0724 153.338 88.2086 153.43C88.3449 153.523 88.4473 153.658 88.5005 153.814C88.7848 154.32 89.0309 154.864 89.2855 155.408Z" fill="black"/>
<path d="M84.8511 141.094C84.3292 142.795 83.9006 144.542 82.878 145.983C82.54 146.362 82.2855 146.808 82.1312 147.293C82.1196 147.65 82.0611 148.005 81.9573 148.347C81.813 148.636 81.5075 148.828 81.3844 149.125C81.202 149.55 81.4396 150.099 81.1977 150.498C81.0845 150.659 80.9487 150.802 80.7946 150.924C80.2175 151.459 80.0733 152.314 80.0605 153.105C80.0478 153.895 80.1242 154.703 79.8654 155.447C82.1058 154.108 84.9572 154.508 87.5031 155.077C88.2117 155.235 89.0901 155.354 89.5483 154.784C90.0066 154.214 89.7435 153.466 89.8072 152.781C89.892 151.889 90.5031 151.149 90.8807 150.337C91.305 149.423 91.4493 148.402 91.776 147.45C92.4507 145.447 93.8976 143.815 94.8269 141.923C95.1709 141.272 95.3761 140.557 95.4294 139.823C95.3974 138.871 95.1492 137.939 94.7038 137.097C93.8208 135.138 92.7702 133.259 91.5639 131.481C91.025 130.686 90.0957 129.215 89.2598 130.486C88.5809 131.511 88.1566 132.816 87.6559 133.938C86.5769 136.264 85.6402 138.654 84.8511 141.094Z" fill="#464353"/>
<path d="M123.138 124.588C121.864 124.676 120.586 124.478 119.398 124.008C118.21 123.538 117.142 122.808 116.272 121.872C116.126 121.738 116.02 121.566 115.967 121.374C115.942 121.126 116.012 120.877 116.162 120.677C116.671 119.89 117.549 119.372 117.957 118.526C118.364 117.68 118.224 116.706 118.262 115.779C118.33 114.117 118.984 112.471 119.039 110.835C119.058 110.416 119.027 109.996 118.945 109.585C118.75 108.974 118.63 108.341 118.589 107.701C118.644 106.455 119.764 105.486 119.951 104.257C120.193 102.693 118.899 101.332 117.596 100.431C116.603 99.7407 115.524 99.1819 114.388 98.7686C113.69 98.5181 112.968 98.3428 112.233 98.2456C110.862 98.0601 109.468 98.2164 108.172 98.7005C107.636 98.9033 107.128 99.1748 106.661 99.5083C106.383 99.6844 106.152 99.9251 105.987 100.21C105.851 100.531 105.79 100.878 105.808 101.226C105.783 102.965 105.978 104.814 105.151 106.328C104.726 107.14 104.005 107.799 103.653 108.658C103.509 109.015 103.419 109.392 103.386 109.776C103.343 110.174 103.322 110.574 103.322 110.975C103.296 113.215 103.322 115.579 104.459 117.522C104.86 118.11 105.225 118.722 105.55 119.355C105.707 119.675 105.78 120.03 105.762 120.387C105.743 120.743 105.634 121.089 105.444 121.391C105.214 121.667 104.923 121.885 104.595 122.029C103.752 122.434 102.836 122.661 101.902 122.694C100.968 122.728 100.037 122.568 99.1678 122.225C100.184 121.259 100.883 120.006 101.169 118.632C101.456 117.259 101.317 115.83 100.772 114.538C100.465 114.016 100.266 113.437 100.186 112.837C100.229 112.296 100.373 111.768 100.611 111.281C101.192 109.683 101.282 107.948 100.869 106.298C100.611 105.286 100.161 104.308 100.08 103.267C100.013 102.48 100.047 101.689 100.182 100.911C100.415 99.5204 101.026 98.2208 101.949 97.1562C102.873 96.0915 104.072 95.3033 105.414 94.8784C105.63 94.8061 105.838 94.7381 106.076 94.6785C107.105 94.4495 108.157 94.3369 109.212 94.3427C111.566 94.2661 113.955 94.1981 116.226 94.8146C117.558 95.1643 118.798 95.8029 119.858 96.6853C120.61 97.3188 121.21 98.1136 121.614 99.0109C121.835 99.5278 122.002 100.066 122.111 100.618C122.208 101.073 122.281 101.532 122.353 101.991C122.866 105.261 123.38 108.594 122.832 111.859C122.616 113.135 122.238 114.41 122.068 115.711C121.657 118.709 122.399 121.689 123.138 124.588Z" fill="#464353"/>
<path d="M108.062 128.79C108.497 128.79 108.851 128.436 108.851 127.999C108.851 127.562 108.497 127.208 108.062 127.208C107.626 127.208 107.272 127.562 107.272 127.999C107.272 128.436 107.626 128.79 108.062 128.79Z" fill="white"/>
<path d="M121.381 128.415C121.817 128.415 122.17 128.061 122.17 127.624C122.17 127.187 121.817 126.833 121.381 126.833C120.945 126.833 120.592 127.187 120.592 127.624C120.592 128.061 120.945 128.415 121.381 128.415Z" fill="white"/>
<path opacity="0.1" d="M108.062 88.0331L106.364 84.8231C106.472 84.6948 106.59 84.5753 106.717 84.466C106.962 84.3147 107.249 84.2461 107.535 84.2704L108.062 88.0331Z" fill="black"/>
<path opacity="0.1" d="M112.742 84.1222L110.82 86.9708L109.725 83.8459C110.192 83.6448 110.698 83.549 111.206 83.5653C111.745 83.6639 112.264 83.8521 112.742 84.1222Z" fill="black"/>
<g opacity="0.1">
<path opacity="0.1" d="M105.444 120.549C105.214 120.825 104.923 121.043 104.595 121.187C103.09 121.909 101.374 122.052 99.7704 121.591C99.584 121.818 99.3827 122.033 99.1678 122.233C100.037 122.576 100.968 122.736 101.902 122.703C102.836 122.669 103.752 122.443 104.595 122.037C104.923 121.894 105.214 121.675 105.444 121.4C105.59 121.187 105.689 120.947 105.736 120.693C105.783 120.44 105.776 120.179 105.715 119.929C105.673 120.154 105.58 120.366 105.444 120.549Z" fill="black"/>
<path opacity="0.1" d="M100.84 106.311C100.978 106.868 101.059 107.438 101.081 108.011C101.13 107.154 101.049 106.293 100.84 105.46C100.581 104.448 100.131 103.471 100.05 102.429C100.05 102.297 100.05 102.165 100.029 102.029C100.009 102.446 100.016 102.864 100.05 103.279C100.131 104.321 100.581 105.299 100.84 106.311Z" fill="black"/>
<path opacity="0.1" d="M122.802 111.871C122.983 110.747 123.059 109.608 123.032 108.47C123.017 109.324 122.94 110.177 122.802 111.021C122.586 112.296 122.208 113.572 122.039 114.873C121.951 115.57 121.918 116.274 121.941 116.977C121.953 116.558 121.985 116.139 122.039 115.723C122.208 114.422 122.586 113.159 122.802 111.871Z" fill="black"/>
<path opacity="0.1" d="M100.755 113.696C100.533 113.277 100.354 112.837 100.22 112.382C100.184 112.535 100.167 112.692 100.169 112.85C100.249 113.45 100.448 114.028 100.755 114.55C101.066 115.263 101.246 116.026 101.285 116.803C101.362 115.74 101.18 114.673 100.755 113.696Z" fill="black"/>
<path opacity="0.1" d="M118.945 109.567C118.983 109.761 119.009 109.956 119.026 110.153C119.026 110.089 119.026 110.03 119.026 109.966C119.046 109.547 119.014 109.128 118.933 108.716C118.839 108.27 118.686 107.828 118.614 107.377C118.593 107.478 118.58 107.58 118.576 107.683C118.622 108.324 118.746 108.956 118.945 109.567Z" fill="black"/>
<path opacity="0.1" d="M116.272 121.003C116.207 120.935 116.146 120.862 116.09 120.786C115.985 120.957 115.942 121.157 115.967 121.356C116.02 121.547 116.126 121.72 116.272 121.853C117.142 122.79 118.21 123.52 119.398 123.99C120.586 124.46 121.864 124.658 123.138 124.57C123.065 124.289 122.993 124.013 122.925 123.72C121.686 123.777 120.449 123.563 119.301 123.094C118.152 122.625 117.118 121.912 116.272 121.003Z" fill="black"/>
<path opacity="0.1" d="M119.943 103.449C119.941 103.433 119.941 103.418 119.943 103.402C120.185 101.837 118.89 100.477 117.588 99.5756C116.594 98.8853 115.516 98.3266 114.38 97.9132C113.682 97.6627 112.959 97.4874 112.224 97.3902C110.854 97.2047 109.459 97.361 108.164 97.8452C107.627 98.0479 107.12 98.3194 106.653 98.653C106.375 98.8291 106.144 99.0697 105.978 99.3545C105.842 99.6751 105.781 100.023 105.8 100.371C105.8 100.664 105.8 100.957 105.8 101.255V101.221C105.781 100.873 105.842 100.525 105.978 100.205C106.144 99.92 106.375 99.6794 106.653 99.5033C107.12 99.1697 107.627 98.8982 108.164 98.6955C109.459 98.2113 110.854 98.0551 112.224 98.2406C112.959 98.3377 113.682 98.513 114.38 98.7635C115.516 99.1769 116.594 99.7356 117.588 100.426C118.67 101.157 119.735 102.212 119.943 103.449Z" fill="black"/>
<path opacity="0.1" d="M105.151 105.485C104.726 106.297 104.005 106.956 103.653 107.815C103.509 108.172 103.419 108.549 103.386 108.933C103.343 109.331 103.322 109.732 103.322 110.132C103.322 110.493 103.322 110.859 103.322 111.225C103.322 111.144 103.322 111.063 103.322 110.982C103.322 110.582 103.343 110.182 103.386 109.783C103.419 109.399 103.509 109.023 103.653 108.665C104.005 107.815 104.709 107.147 105.151 106.335C105.834 105.06 105.821 103.593 105.808 102.135C105.865 103.289 105.639 104.439 105.151 105.485Z" fill="black"/>
</g>
<path opacity="0.1" d="M122.081 100.648C122.023 100.732 121.954 100.807 121.878 100.874C121.728 100.997 121.56 101.097 121.381 101.171C120.146 101.707 120.197 99.9596 119.552 99.3601C119.139 99.0544 118.631 98.9039 118.118 98.9349C116.876 98.8726 115.633 98.8173 114.388 98.7691C112.313 98.6926 110.243 98.6543 108.172 98.7011C107.179 98.7181 106.189 98.7592 105.202 98.8244C104.056 98.9009 102.826 99.0497 101.85 99.5939C101.516 99.7781 101.213 100.015 100.954 100.295C100.721 100.551 100.475 100.874 100.152 100.933C100.385 99.5422 100.997 98.2426 101.92 97.178C102.843 96.1133 104.042 95.3251 105.384 94.9002C107.557 93.2784 110.272 92.561 112.96 92.8977C115.649 93.2344 118.103 94.5993 119.811 96.7071C120.563 97.3406 121.164 98.1354 121.568 99.0327C121.795 99.5517 121.967 100.093 122.081 100.648Z" fill="black"/>
<path d="M121.381 100.32C120.146 100.856 120.197 99.1088 119.552 98.5093C119.139 98.2036 118.631 98.0531 118.118 98.0841C113.818 97.8008 109.506 97.7638 105.202 97.9736C103.67 98.0756 101.99 98.3052 100.958 99.4446C100.695 99.7337 100.42 100.108 100.025 100.095C99.8934 99.2448 99.8 98.3605 99.7364 97.4889C99.6979 97.1624 99.7151 96.8317 99.7873 96.511C99.8934 96.1454 100.135 95.835 100.258 95.4779C100.379 95.0237 100.422 94.5521 100.386 94.0834C100.404 92.3488 100.869 90.6485 101.736 89.1469C102.603 87.6453 103.842 86.3933 105.333 85.5122C105.707 85.3288 106.054 85.0941 106.364 84.8149C106.472 84.6866 106.59 84.5671 106.716 84.4578C106.962 84.3065 107.249 84.2379 107.535 84.2622C107.739 84.2622 107.96 84.2622 108.138 84.2622C108.687 84.2016 109.223 84.0583 109.729 83.8371C110.196 83.636 110.702 83.5402 111.21 83.5565C111.749 83.6551 112.269 83.8433 112.746 84.1134C112.976 84.2242 113.216 84.3111 113.463 84.3728C113.849 84.462 114.248 84.4578 114.634 84.5343C115.26 84.6938 115.854 84.9583 116.391 85.3166C117.032 85.6631 117.626 86.0919 118.156 86.5921C118.733 87.2527 119.195 88.0058 119.522 88.8199C120.084 89.9446 120.512 91.132 120.795 92.3572C121.139 94.1174 120.969 96.0221 121.784 97.6207C122.281 98.6241 122.735 99.738 121.381 100.32Z" fill="#FED253"/>
<path opacity="0.1" d="M99.8721 98.9854C99.8721 98.9854 108.668 90.9669 121.767 97.6164C121.767 97.6164 106.979 94.2449 99.8721 98.9854Z" fill="black"/>
<path d="M4.02668 139.958C2.83009 137.994 1.03098 136.196 1.31103 133.968C4.60375 134.346 7.72675 133.543 10.7437 132.144C13.7606 130.745 16.5611 128.93 19.3871 127.148C20.4988 126.447 21.6062 125.758 22.7095 125.12C24.4577 124.117 26.1932 122.995 27.9711 122.013C30.517 120.61 33.1138 119.462 35.9737 119.241C36.4918 119.2 37.0116 119.187 37.531 119.202C41.0528 119.27 44.702 120.218 47.7995 118.637L47.9905 118.535C49.7472 117.57 51.0243 115.929 52.5307 114.598C53.6137 113.659 54.7928 112.838 56.0483 112.149C58.3354 110.873 60.8134 109.853 63.1514 108.65C63.7499 108.341 64.3181 107.977 64.8487 107.561L65.2476 107.243L65.3367 107.166C65.4343 107.085 65.5319 107.004 65.6252 106.919L65.8077 106.758L65.9944 106.588L66.1386 106.452L66.372 106.231L66.3975 106.201L66.7666 105.835L66.9151 105.686L67.174 105.419L67.3267 105.266C67.5856 104.998 67.8444 104.726 68.1075 104.462C68.3706 104.198 68.727 103.841 69.0452 103.548L69.3507 103.276L69.4398 103.199L69.6859 102.995L69.8005 102.897L70.0424 102.71L70.1612 102.617C70.28 102.528 70.403 102.442 70.5261 102.357C70.6393 102.279 70.7585 102.209 70.8825 102.149L70.0891 100.223L72.3719 99.2793L103.856 175.829L101.569 176.773L83.5612 132.982L83.4339 133.109C79.2623 137.234 74.1524 140.28 68.5445 141.987H68.5106C65.3749 142.935 61.8657 143.606 59.2265 145.367C58.2906 145.976 57.4774 146.756 56.829 147.667C56.2095 148.551 55.7767 149.559 55.1318 150.409C55.0087 150.566 54.8729 150.719 54.7372 150.864C53.9655 151.63 53.1117 152.309 52.1912 152.888L51.7881 153.164C49.0543 155.091 46.2061 156.85 43.2593 158.432C41.5588 159.319 39.7858 160.058 37.9595 160.642C36.6314 161.068 35.2609 161.378 33.9327 161.799C33.0394 162.07 32.1718 162.42 31.3402 162.845C29.0913 164.022 27.3643 165.868 25.7306 167.836C24.3007 169.562 22.9429 171.39 21.3729 172.964C20.3885 173.941 18.8906 174.868 17.7025 174.294L17.4606 174.154C17.4988 174.09 17.5285 174.026 17.5625 173.958C18.5002 171.99 17.3461 169.558 15.7931 167.981C15.6318 167.815 15.4663 167.653 15.2966 167.5C15.1269 167.347 14.8214 167.075 14.5795 166.863C13.2514 165.719 11.8384 164.656 10.9176 163.181C10.2148 161.941 9.73783 160.587 9.50889 159.18C9.08457 157.177 8.80027 155.115 7.71402 153.411C7.00116 152.284 5.94036 151.323 5.1681 150.243C4.67993 149.604 4.35903 148.853 4.23459 148.058C4.06062 146.676 4.70134 145.324 4.94321 143.946C5.01516 143.571 5.04505 143.189 5.03231 142.807C4.94368 141.787 4.59761 140.807 4.02668 139.958Z" fill="url(#paint6_linear)"/>
<path d="M100.769 176.116L103.017 175.188L72.0572 99.9246L69.8093 100.853L100.769 176.116Z" fill="#D6D8E1"/>
<path d="M8.47352 153.142C9.53856 154.822 9.82286 156.845 10.2345 158.814C10.4627 160.198 10.9324 161.53 11.622 162.751C12.53 164.201 13.9175 165.247 15.2202 166.369C15.4578 166.577 15.6954 166.794 15.9246 166.998C16.0901 167.147 16.2555 167.309 16.4125 167.466C17.9401 169.018 19.073 171.411 18.1523 173.346C18.124 173.412 18.0914 173.476 18.0547 173.537C18.1292 173.588 18.2072 173.633 18.288 173.673C19.4592 174.243 20.9316 173.333 21.899 172.368C23.4435 170.82 24.7801 169.026 26.1846 167.33C27.7886 165.391 29.4901 163.576 31.7008 162.419C32.5169 162 33.369 161.656 34.2467 161.39C35.5494 160.965 36.8987 160.663 38.2056 160.255C40.0007 159.68 41.7438 158.953 43.4163 158.083C46.3184 156.526 49.1241 154.796 51.8178 152.9L52.2167 152.628C53.1212 152.06 53.9607 151.394 54.7202 150.642C54.8559 150.498 54.9875 150.349 55.1105 150.192C55.764 149.341 56.1925 148.368 56.8078 147.496C57.4459 146.601 58.2462 145.834 59.167 145.234C61.7639 143.504 65.2093 142.841 68.2942 141.91H68.3281C73.8406 140.229 78.8639 137.234 82.9671 133.181C83.3072 132.896 83.5614 132.523 83.7012 132.101C83.8327 131.502 83.5103 130.907 83.2005 130.379C82.8398 129.759 82.4876 129.138 82.1397 128.509C80.5749 125.655 79.1779 122.712 77.9559 119.695C77.6886 119.032 77.4298 118.373 77.1794 117.705C76.5373 116.005 75.9517 114.28 75.4227 112.531C75.2488 111.953 75.079 111.37 74.9178 110.788C74.8881 110.677 74.8541 110.558 74.8244 110.431C74.1201 107.595 73.1781 100.958 70.2757 102.944C69.4126 103.562 68.6098 104.261 67.8783 105.031C67.314 105.605 66.7624 106.196 66.181 106.766C65.7075 107.233 65.2074 107.671 64.6832 108.08C64.1512 108.488 63.583 108.847 62.9859 109.151C60.6819 110.333 58.2463 111.324 56.0016 112.591C54.7655 113.267 53.6048 114.074 52.5391 114.997C51.0583 116.307 49.8023 117.922 48.0753 118.87L47.8886 118.972C44.842 120.524 41.2565 119.593 37.7898 119.525C37.2803 119.512 36.7705 119.525 36.2622 119.563C33.449 119.776 30.8776 120.907 28.3911 122.289C26.6429 123.258 24.9371 124.355 23.2186 125.345C22.1324 125.97 21.0461 126.646 19.9514 127.339C17.1763 129.091 14.3631 130.928 11.465 132.254C8.49474 133.606 5.42691 134.414 2.18934 134.044C1.91354 136.234 3.67871 138.002 4.85832 139.933C5.42488 140.762 5.76832 141.724 5.85547 142.726C5.87106 143.101 5.84401 143.476 5.77485 143.844C5.53723 145.2 4.92621 146.527 5.07896 147.892C5.19937 148.67 5.51308 149.405 5.99125 150.03C6.72957 151.089 7.76915 152.037 8.47352 153.142Z" fill="url(#paint7_linear)"/>
<path d="M94.7423 161.999C94.7423 161.999 98.4593 165.247 102.227 166.978C105.995 168.708 103.5 174.915 103.5 174.915C103.5 174.915 99.5074 175.834 96.7111 171.939C93.9149 168.045 94.7423 161.999 94.7423 161.999Z" fill="#FBBEBE"/>
<path d="M295.038 217.29C295.038 217.29 285.194 230.27 277.026 230.376C268.858 230.483 264.063 235.844 267.941 239.194C271.819 242.544 314.082 237.281 314.082 237.281C314.082 237.281 314.481 221.329 310.819 218.999C307.157 216.669 295.038 217.29 295.038 217.29Z" fill="#444176"/>
<path d="M400.885 232.872C400.885 232.872 402.391 243.152 397.736 250.163C393.082 257.174 406.146 259.878 406.146 259.878C406.146 259.878 415.638 262.527 416.33 253.131C417.022 243.735 416.797 236.55 415.906 235.784C415.015 235.019 414.272 229.734 414.272 229.734L400.885 232.872Z" fill="#444176"/>
<path d="M251.863 252.289C251.863 252.289 251.52 219.038 284.358 205.522L291.983 190.986L295.641 182.057C296.965 178.824 299.049 175.958 301.715 173.703C304.381 171.449 307.55 169.872 310.954 169.107L316.869 167.776L318.698 160.055C319.672 155.928 321.832 152.178 324.909 149.266C327.986 146.354 331.847 144.409 336.015 143.67C339.611 143.001 343.261 142.659 346.92 142.649C348.538 142.674 350.123 143.117 351.52 143.937C352.917 144.756 354.079 145.924 354.893 147.326C354.893 147.326 386.004 146.982 387.383 163.954C387.383 163.954 390.497 179.536 394.991 182.308C394.991 182.308 402.595 180.578 410.198 191.662L418.494 220.062C418.494 220.062 440.27 240.495 433.702 259.177C433.702 259.177 424.714 271.991 379.087 263.331C379.087 263.331 330.35 278.211 304.407 257.804C304.403 257.829 261.199 266.141 251.863 252.289Z" fill="#A8A8A8"/>
<path opacity="0.1" d="M273.64 247.094C273.64 247.094 280.556 237.396 280.208 230.466C279.86 223.536 281.837 206.657 281.837 206.657" stroke="black" stroke-miterlimit="10"/>
<path opacity="0.1" d="M298.874 221.117C298.874 221.117 305.786 208.303 305.095 201.377C305.095 201.377 312.355 188.197 317.884 189.251" stroke="black" stroke-miterlimit="10"/>
<path opacity="0.1" d="M336.897 184.748C336.897 184.748 355.907 177.822 356.947 172.282" stroke="black" stroke-miterlimit="10"/>
<path opacity="0.1" d="M343.81 200.683C343.81 200.683 363.859 191.678 363.859 189.25H373.877C373.877 189.25 388.397 208.301 386.67 216.613" stroke="black" stroke-miterlimit="10"/>
<path opacity="0.1" d="M367.317 214.535C367.317 214.535 347.959 213.149 341.043 218.693C334.127 224.237 321.685 227.005 321.685 227.005C321.685 227.005 314.425 242.591 311.659 245.359C308.892 248.127 304.399 257.829 304.399 257.829" stroke="black" stroke-miterlimit="10"/>
<path opacity="0.1" d="M367.317 232.894C367.317 232.894 369.387 240.164 372.154 244.322C374.92 248.48 379.066 263.369 379.066 263.369" stroke="black" stroke-miterlimit="10"/>
<path opacity="0.1" d="M399.807 254.02C399.807 254.02 404.194 266.251 408.052 266.37" stroke="black" stroke-miterlimit="10"/>
<path opacity="0.1" d="M371.068 201.517C371.068 201.517 382.465 204.603 387.23 212.082C391.995 219.56 406.549 226.342 406.549 226.342" stroke="black" stroke-miterlimit="10"/>
<path opacity="0.1" d="M375.956 164.672C375.956 164.672 375.956 180.603 380.449 180.603C384.943 180.603 394.97 182.333 394.97 182.333" stroke="black" stroke-miterlimit="10"/>
<path opacity="0.1" d="M353.934 145.753C353.934 145.753 352.784 173.273 346.907 180.399" stroke="black" stroke-miterlimit="10"/>
<g opacity="0.05">
<path opacity="0.05" d="M417.781 219.73L409.486 191.33C401.882 180.246 394.278 181.976 394.278 181.976C389.784 179.204 386.674 163.618 386.674 163.618C385.291 146.645 354.18 146.994 354.18 146.994C353.365 145.589 352.2 144.42 350.8 143.601C349.4 142.781 347.811 142.339 346.19 142.317C344.722 142.317 343.22 142.364 341.718 142.487C342.566 142.572 343.379 142.693 344.157 142.849L346.576 147.007C346.576 147.007 377.683 146.658 379.066 163.631C379.066 163.631 382.181 179.217 386.674 181.989C386.674 181.989 394.278 180.254 401.882 191.342L410.177 219.743C410.177 219.743 431.953 240.176 425.385 258.858C425.385 258.858 420.951 265.18 402.506 265.945C427.375 266.859 432.989 258.858 432.989 258.858C439.557 240.163 417.781 219.73 417.781 219.73Z" fill="black"/>
<path opacity="0.05" d="M296.108 257.48C288.79 258.8 281.391 259.611 273.962 259.908C282.623 260.24 291.631 259.3 297.436 258.501C296.986 258.156 296.545 257.825 296.108 257.48Z" fill="black"/>
<path opacity="0.05" d="M370.771 263.024C360.129 266.015 349.176 267.75 338.132 268.194C354.065 268.773 369.158 265.444 375.379 263.845C373.877 263.594 372.354 263.309 370.771 263.024Z" fill="black"/>
</g>
<path d="M94.5596 317.046C94.5596 317.046 104.069 316.753 106.933 314.708C109.797 312.663 121.555 310.222 122.268 313.5C122.981 316.778 136.555 329.805 125.819 329.894C115.084 329.983 100.882 328.219 98.0221 326.472C95.1622 324.724 94.5596 317.046 94.5596 317.046Z" fill="#A8A8A8"/>
<path opacity="0.2" d="M126.014 328.749C115.279 328.838 101.073 327.074 98.213 325.348C96.0363 324.017 95.1664 319.247 94.8779 317.049H94.5596C94.5596 317.049 95.1622 324.731 98.0221 326.475C100.882 328.218 115.088 329.982 125.819 329.897C128.921 329.872 129.99 328.766 129.931 327.129C129.502 328.116 128.319 328.732 126.014 328.749Z" fill="black"/>
<path d="M326.383 293.151C326.383 293.151 315.185 290.906 312.202 287.913C309.219 284.92 295.781 279.691 294.287 283.428C292.793 287.165 274.136 299.881 286.823 302.135C299.51 304.388 316.678 305.111 320.412 303.631C324.146 302.152 326.383 293.151 326.383 293.151Z" fill="#A8A8A8"/>
<path opacity="0.2" d="M286.823 300.724C299.515 302.965 316.679 303.7 320.413 302.217C323.251 301.077 325.229 295.605 326.009 293.059L326.383 293.139C326.383 293.139 324.142 302.11 320.413 303.607C316.683 305.103 299.515 304.355 286.823 302.11C283.162 301.464 282.113 299.942 282.508 298.02C282.822 299.287 284.099 300.252 286.823 300.724Z" fill="black"/>
<path opacity="0.1" d="M219.161 48.8293H216.496C216.992 48.8293 217.466 48.6322 217.817 48.2814C218.167 47.9306 218.363 47.4547 218.363 46.9586C218.363 46.4625 218.167 45.9866 217.817 45.6358C217.466 45.285 216.992 45.0879 216.496 45.0879H194.907C194.412 45.0879 193.937 45.285 193.587 45.6358C193.237 45.9866 193.04 46.4625 193.04 46.9586C193.04 47.4547 193.237 47.9306 193.587 48.2814C193.937 48.6322 194.412 48.8293 194.907 48.8293H197.572C197.093 48.8522 196.641 49.0591 196.309 49.407C195.978 49.7549 195.794 50.2172 195.794 50.6979C195.794 51.1786 195.978 51.6408 196.309 51.9887C196.641 52.3367 197.093 52.5435 197.572 52.5664H193.842C193.347 52.5664 192.872 52.7635 192.522 53.1144C192.172 53.4652 191.975 53.941 191.975 54.4371C191.975 54.9333 192.172 55.4091 192.522 55.7599C192.872 56.1107 193.347 56.3078 193.842 56.3078H215.431C215.927 56.3078 216.401 56.1107 216.752 55.7599C217.102 55.4091 217.298 54.9333 217.298 54.4371C217.298 53.941 217.102 53.4652 216.752 53.1144C216.401 52.7635 215.927 52.5664 215.431 52.5664H219.161C219.414 52.5785 219.666 52.5391 219.902 52.4507C220.139 52.3622 220.356 52.2265 220.538 52.0518C220.721 51.8771 220.867 51.667 220.966 51.4343C221.066 51.2016 221.117 50.951 221.117 50.6979C221.117 50.4447 221.066 50.1942 220.966 49.9614C220.867 49.7287 220.721 49.5186 220.538 49.3439C220.356 49.1692 220.139 49.0335 219.902 48.9451C219.666 48.8566 219.414 48.8172 219.161 48.8293Z" fill="url(#paint8_linear)"/>
<path opacity="0.1" d="M303.015 114.648H300.351C300.83 114.626 301.282 114.419 301.613 114.071C301.944 113.723 302.129 113.261 302.129 112.78C302.129 112.299 301.944 111.837 301.613 111.489C301.282 111.141 300.83 110.934 300.351 110.911H278.74C278.488 110.899 278.235 110.939 277.999 111.027C277.762 111.116 277.546 111.251 277.363 111.426C277.18 111.601 277.034 111.811 276.935 112.043C276.835 112.276 276.784 112.527 276.784 112.78C276.784 113.033 276.835 113.284 276.935 113.516C277.034 113.749 277.18 113.959 277.363 114.134C277.546 114.309 277.762 114.444 277.999 114.533C278.235 114.621 278.488 114.661 278.74 114.648H281.405C280.926 114.671 280.474 114.878 280.142 115.226C279.811 115.574 279.627 116.036 279.627 116.517C279.627 116.998 279.811 117.46 280.142 117.808C280.474 118.156 280.926 118.363 281.405 118.386H277.675C277.18 118.386 276.705 118.583 276.355 118.934C276.005 119.284 275.808 119.76 275.808 120.256C275.808 120.752 276.005 121.228 276.355 121.579C276.705 121.93 277.18 122.127 277.675 122.127H299.26C299.755 122.127 300.23 121.93 300.58 121.579C300.93 121.228 301.127 120.752 301.127 120.256C301.127 119.76 300.93 119.284 300.58 118.934C300.23 118.583 299.755 118.386 299.26 118.386H303.015C303.268 118.398 303.52 118.358 303.757 118.27C303.993 118.181 304.21 118.046 304.393 117.871C304.576 117.696 304.721 117.486 304.821 117.253C304.92 117.021 304.971 116.77 304.971 116.517C304.971 116.264 304.92 116.013 304.821 115.781C304.721 115.548 304.576 115.338 304.393 115.163C304.21 114.988 303.993 114.853 303.757 114.764C303.52 114.676 303.268 114.636 303.015 114.648Z" fill="url(#paint9_linear)"/>
<path opacity="0.1" d="M178.762 102.472H176.097C176.349 102.484 176.601 102.444 176.838 102.356C177.075 102.267 177.291 102.132 177.474 101.957C177.657 101.782 177.803 101.572 177.902 101.34C178.002 101.107 178.053 100.856 178.053 100.603C178.053 100.35 178.002 100.099 177.902 99.8667C177.803 99.6339 177.657 99.4239 177.474 99.2492C177.291 99.0745 177.075 98.9388 176.838 98.8503C176.601 98.7619 176.349 98.7225 176.097 98.7345H154.503C154.251 98.7225 153.999 98.7619 153.762 98.8503C153.525 98.9388 153.309 99.0745 153.126 99.2492C152.943 99.4239 152.797 99.6339 152.698 99.8667C152.599 100.099 152.547 100.35 152.547 100.603C152.547 100.856 152.599 101.107 152.698 101.34C152.797 101.572 152.943 101.782 153.126 101.957C153.309 102.132 153.525 102.267 153.762 102.356C153.999 102.444 154.251 102.484 154.503 102.472H157.168C156.916 102.46 156.663 102.499 156.427 102.587C156.19 102.676 155.974 102.812 155.791 102.986C155.608 103.161 155.462 103.371 155.363 103.604C155.263 103.837 155.212 104.087 155.212 104.34C155.212 104.593 155.263 104.844 155.363 105.077C155.462 105.309 155.608 105.519 155.791 105.694C155.974 105.869 156.19 106.005 156.427 106.093C156.663 106.182 156.916 106.221 157.168 106.209H153.434C152.939 106.209 152.464 106.406 152.114 106.757C151.764 107.108 151.567 107.583 151.567 108.08C151.567 108.576 151.764 109.051 152.114 109.402C152.464 109.753 152.939 109.95 153.434 109.95H175.023C175.519 109.95 175.993 109.753 176.344 109.402C176.694 109.051 176.89 108.576 176.89 108.08C176.89 107.583 176.694 107.108 176.344 106.757C175.993 106.406 175.519 106.209 175.023 106.209H178.753C179.006 106.221 179.258 106.182 179.494 106.093C179.731 106.005 179.948 105.869 180.13 105.694C180.313 105.519 180.459 105.309 180.558 105.077C180.658 104.844 180.709 104.593 180.709 104.34C180.709 104.087 180.658 103.837 180.558 103.604C180.459 103.371 180.313 103.161 180.13 102.986C179.948 102.812 179.731 102.676 179.494 102.587C179.258 102.499 179.006 102.46 178.753 102.472H178.762Z" fill="url(#paint10_linear)"/>
</g>
<defs>
<linearGradient id="paint0_linear" x1="27.373" y1="0" x2="354.531" y2="408.973" gradientUnits="userSpaceOnUse">
<stop offset="0.0208333" stop-color="#41E7B0"/>
<stop offset="0.505208" stop-color="#2297F3"/>
<stop offset="0.947917" stop-color="#8358FC"/>
</linearGradient>
<linearGradient id="paint1_linear" x1="0" y1="256.21" x2="5.85392" y2="298.345" gradientUnits="userSpaceOnUse">
<stop offset="0.0208333" stop-color="#41E7B0"/>
<stop offset="0.505208" stop-color="#2297F3"/>
<stop offset="0.947917" stop-color="#8358FC"/>
</linearGradient>
<linearGradient id="paint2_linear" x1="79.6746" y1="321.126" x2="83.6603" y2="342.652" gradientUnits="userSpaceOnUse">
<stop offset="0.0208333" stop-color="#41E7B0"/>
<stop offset="0.505208" stop-color="#2297F3"/>
<stop offset="0.947917" stop-color="#8358FC"/>
</linearGradient>
<linearGradient id="paint3_linear" x1="273.644" y1="298.521" x2="277.63" y2="320.046" gradientUnits="userSpaceOnUse">
<stop offset="0.0208333" stop-color="#41E7B0"/>
<stop offset="0.505208" stop-color="#2297F3"/>
<stop offset="0.947917" stop-color="#8358FC"/>
</linearGradient>
<linearGradient id="paint4_linear" x1="159.544" y1="289.669" x2="163.951" y2="318.69" gradientUnits="userSpaceOnUse">
<stop offset="0.0208333" stop-color="#41E7B0"/>
<stop offset="0.505208" stop-color="#2297F3"/>
<stop offset="0.947917" stop-color="#8358FC"/>
</linearGradient>
<linearGradient id="paint5_linear" x1="245.439" y1="243.607" x2="253.322" y2="299.755" gradientUnits="userSpaceOnUse">
<stop offset="0.0208333" stop-color="#41E7B0"/>
<stop offset="0.505208" stop-color="#2297F3"/>
<stop offset="0.947917" stop-color="#8358FC"/>
</linearGradient>
<linearGradient id="paint6_linear" x1="-307741" y1="27863.7" x2="-332545" y2="27863.7" gradientUnits="userSpaceOnUse">
<stop stop-color="#808080" stop-opacity="0.25"/>
<stop offset="0.54" stop-color="#808080" stop-opacity="0.12"/>
<stop offset="1" stop-color="#808080" stop-opacity="0.1"/>
</linearGradient>
<linearGradient id="paint7_linear" x1="2.16052" y1="102.579" x2="67.6748" y2="186.4" gradientUnits="userSpaceOnUse">
<stop offset="0.0208333" stop-color="#F60638"/>
<stop offset="0.505208" stop-color="#F40469"/>
<stop offset="0.947917" stop-color="#F20094"/>
</linearGradient>
<linearGradient id="paint8_linear" x1="191.975" y1="45.0879" x2="198.52" y2="64.0907" gradientUnits="userSpaceOnUse">
<stop offset="0.0208333" stop-color="#41E7B0"/>
<stop offset="0.505208" stop-color="#2297F3"/>
<stop offset="0.947917" stop-color="#8358FC"/>
</linearGradient>
<linearGradient id="paint9_linear" x1="275.808" y1="110.909" x2="282.347" y2="129.912" gradientUnits="userSpaceOnUse">
<stop offset="0.0208333" stop-color="#41E7B0"/>
<stop offset="0.505208" stop-color="#2297F3"/>
<stop offset="0.947917" stop-color="#8358FC"/>
</linearGradient>
<linearGradient id="paint10_linear" x1="151.567" y1="98.7324" x2="158.11" y2="117.732" gradientUnits="userSpaceOnUse">
<stop offset="0.0208333" stop-color="#41E7B0"/>
<stop offset="0.505208" stop-color="#2297F3"/>
<stop offset="0.947917" stop-color="#8358FC"/>
</linearGradient>
<clipPath id="clip0">
<rect width="438" height="354" fill="white"/>
</clipPath>
</defs>
</svg>
