<svg width="28" height="27" viewBox="0 0 28 27" fill="none" xmlns="http://www.w3.org/2000/svg">
<g clip-path="url(#clip0)">
<path d="M8.98987 13.4735L10.7369 11.4812L18.4303 9.23047L12.831 16.7689H10.5913H6.11182L8.98987 13.4735Z" stroke="#FBFBFB" stroke-width="1.5" stroke-linecap="round" stroke-linejoin="round"/>
<path d="M10.5914 16.7691C10.5939 17.7526 10.2472 18.7073 9.60871 19.4755C8.97021 20.2438 8.07817 20.7794 7.08012 20.9938C6.08207 21.2082 5.03781 21.0885 4.12007 20.6547C3.20233 20.2208 2.46609 19.4986 2.03313 18.6077C1.60017 17.7167 1.49642 16.7104 1.73906 15.755C1.9817 14.7997 2.55617 13.9526 3.36747 13.3539C4.17877 12.7552 5.17827 12.4407 6.20067 12.4625C7.22307 12.4843 8.20711 12.841 8.99001 13.4737" fill="#FBFBFB" fill-opacity="0.2"/>
<path d="M10.5914 16.7691C10.5939 17.7526 10.2472 18.7073 9.60871 19.4755C8.97021 20.2438 8.07817 20.7794 7.08012 20.9938C6.08207 21.2082 5.03781 21.0885 4.12007 20.6547C3.20233 20.2208 2.46609 19.4986 2.03313 18.6077C1.60017 17.7167 1.49642 16.7104 1.73906 15.755C1.9817 14.7997 2.55617 13.9526 3.36747 13.3539C4.17877 12.7552 5.17827 12.4407 6.20067 12.4625C7.22307 12.4843 8.20711 12.841 8.99001 13.4737" stroke="#FBFBFB" stroke-width="1.5" stroke-linecap="round" stroke-linejoin="round"/>
<path d="M21.79 21.0768C24.264 21.0768 26.2695 19.1482 26.2695 16.7691C26.2695 14.39 24.264 12.4614 21.79 12.4614C19.3161 12.4614 17.3105 14.39 17.3105 16.7691C17.3105 19.1482 19.3161 21.0768 21.79 21.0768Z" fill="#FBFBFB" fill-opacity="0.2" stroke="#FBFBFB" stroke-width="1.5" stroke-linecap="round" stroke-linejoin="round"/>
<path d="M18.4307 7.07692L20.6704 6" stroke="#FBFBFB" stroke-width="1.5" stroke-linecap="round" stroke-linejoin="round"/>
<path d="M21.7903 16.769L18.4307 7.07666" stroke="#FBFBFB" stroke-width="1.5" stroke-linecap="round" stroke-linejoin="round"/>
<path d="M8.35156 8.15381H11.7112" stroke="#FBFBFB" stroke-width="1.5" stroke-linecap="round" stroke-linejoin="round"/>
<path d="M18.4303 9.23047L12.831 16.7689H6.11182L10.7369 11.478L18.4303 9.23047Z" stroke="#FBFBFB" stroke-width="1.5" stroke-linecap="round" stroke-linejoin="round"/>
<path d="M12.8313 16.7692L9.47168 8.15381" stroke="#FBFBFB" stroke-width="1.5" stroke-linecap="round" stroke-linejoin="round"/>
</g>
<defs>
<clipPath id="clip0">
<rect width="26.8768" height="25.8462" fill="white" transform="translate(0.512695 0.615234)"/>
</clipPath>
</defs>
</svg>
