<svg width="24" height="23" viewBox="0 0 24 23" fill="none" xmlns="http://www.w3.org/2000/svg">
<g clip-path="url(#clip0)">
<path d="M14.4297 21.4261C16.4541 21.6606 18.5649 21.0366 20.118 19.5421C21.744 17.9784 22.4495 15.7363 21.9993 13.568L20.8072 7.83749C20.668 7.16734 20.0556 6.68457 19.3443 6.68457C18.5207 6.68457 17.8526 7.32703 17.8526 8.11903V9.48796" stroke="#FBFBFB" stroke-width="1.5" stroke-linecap="round" stroke-linejoin="round"/>
<path d="M15.1863 8.03599L13.4412 6.35784C12.8787 5.81692 11.9668 5.81692 11.4053 6.35784C10.8428 6.89876 10.8428 7.77569 11.4053 8.31569" stroke="#FBFBFB" stroke-width="1.5" stroke-linecap="round" stroke-linejoin="round"/>
<path d="M6.94235 7.94166C6.37985 7.40074 6.37985 6.52382 6.94235 5.98382C7.50484 5.44289 8.41673 5.44289 8.97826 5.98382L12.7113 9.57366L14.7472 11.5315V9.04936C14.7472 8.25736 15.4153 7.61489 16.2388 7.61489C16.9501 7.61489 17.5625 8.09766 17.7017 8.76782L18.7758 13.9343C19.227 16.1026 18.5214 18.3447 16.8944 19.9084C14.2087 22.4912 9.85368 22.4912 7.16792 19.9084L4.56663 17.406L2.19091 15.1214C1.62842 14.5804 1.62842 13.7035 2.19091 13.1635C2.75341 12.6226 3.6653 12.6226 4.22683 13.1635" fill="#C4C4C4" fill-opacity="0.2"/>
<path d="M6.94235 7.94166C6.37985 7.40074 6.37985 6.52382 6.94235 5.98382C7.50484 5.44289 8.41673 5.44289 8.97826 5.98382L12.7113 9.57366L14.7472 11.5315V9.04936C14.7472 8.25736 15.4153 7.61489 16.2388 7.61489C16.9501 7.61489 17.5625 8.09766 17.7017 8.76782L18.7758 13.9343C19.227 16.1026 18.5214 18.3447 16.8944 19.9084C14.2087 22.4912 9.85368 22.4912 7.16792 19.9084L4.56663 17.406L2.19091 15.1214C1.62842 14.5804 1.62842 13.7035 2.19091 13.1635C2.75341 12.6226 3.6653 12.6226 4.22683 13.1635" stroke="#FBFBFB" stroke-width="1.5" stroke-linecap="round" stroke-linejoin="round"/>
<path d="M7.28223 16.1006L2.8706 11.8582C2.30811 11.3172 2.30811 10.4403 2.8706 9.90032C3.43309 9.3594 4.34498 9.3594 4.90652 9.90032" stroke="#FBFBFB" stroke-width="1.5" stroke-linecap="round" stroke-linejoin="round"/>
<path d="M9.31822 14.1422L3.54931 8.5945C2.98682 8.05357 2.98682 7.17665 3.54931 6.63665C4.1118 6.09573 5.0237 6.09573 5.58523 6.63665L11.3541 12.1843" stroke="#FBFBFB" stroke-width="1.5" stroke-linecap="round" stroke-linejoin="round"/>
</g>
<defs>
<clipPath id="clip0">
<rect width="23.0373" height="22.1538" fill="white" transform="translate(0.432617 0.615234)"/>
</clipPath>
</defs>
</svg>
