<svg width="63" height="150" viewBox="0 0 63 150" fill="none" xmlns="http://www.w3.org/2000/svg">
<path d="M36.7103 86.9098C42.1524 85.6534 45.5438 80.2156 44.2852 74.7642C43.0267 69.3128 37.5947 65.912 32.1526 67.1684C26.7105 68.4248 23.3191 73.8626 24.5777 79.314C25.8362 84.7655 31.2682 88.1662 36.7103 86.9098Z" fill="#2C81FF"/>
<path d="M36.0511 84.0549C39.9191 83.1619 42.3296 79.297 41.435 75.4224C40.5405 71.5478 36.6797 69.1307 32.8118 70.0237C28.9438 70.9167 26.5333 74.7816 27.4278 78.6562C28.3224 82.5308 32.1831 84.9479 36.0511 84.0549Z" fill="#F9FFFE"/>
<path d="M35.5679 81.9616C38.2816 81.3351 39.9727 78.6236 39.3451 75.9052C38.7175 73.1868 36.0089 71.491 33.2952 72.1176C30.5815 72.7441 28.8903 75.4556 29.5179 78.174C30.1455 80.8924 32.8541 82.5882 35.5679 81.9616Z" fill="#2C81FF"/>
<path d="M29.7794 76.7741L39.0626 77.1035L36.7305 10.0003L29.7794 76.7741Z" fill="#2C81FF"/>
</svg>
